# This file uses centimeters as units for non-parametric coordinates.

g default
v -1.145808 0.002397 1.230999
v 1.746281 0.007791 0.730487
v -0.572930 1.140140 0.524833
v 0.737556 1.056544 0.377691
v -0.680519 0.944568 -0.718278
v 0.523953 0.867247 -0.789365
v -1.211787 0.014971 -1.129412
v 0.856758 -0.001363 -1.188471
v 0.331876 0.004945 1.447022
v 0.112353 -0.715981 0.217578
vt 0.467922 0.601176
vt 0.584860 0.685631
vt 0.487963 0.710005
vt 0.388856 0.690808
vt 0.462457 0.799659
vt 0.374503 0.783465
vt 0.505259 0.868527
vt 0.308583 0.833726
vt 0.331415 0.613230
vt 0.438958 0.500407
vt 0.203326 0.690890
vt 0.404639 0.985053
vt 0.657327 0.835815
vt 0.540218 0.524254
vn 0.203574 -0.190092 0.960428
vn 0.899684 -0.288643 0.327496
vn 0.374227 0.869708 0.321810
vn -0.356647 0.894304 0.270230
vn 0.317034 0.772643 -0.550011
vn -0.370254 0.809025 -0.456499
vn 0.499008 -0.335923 -0.798841
vn -0.662029 -0.407983 -0.628703
vn -0.704128 -0.303338 0.642020
vn 0.022976 -0.997065 0.073036
s 1
g polySurface2 polySurface1
f 9/1/1 2/2/2 4/3/3
f 3/4/4 4/3/3 6/5/5 5/6/6
f 5/6/6 6/5/5 8/7/7 7/8/8
f 2/2/2 8/7/7 6/5/5 4/3/3
f 7/8/8 1/9/9 3/4/4 5/6/6
f 1/9/9 9/1/1 4/3/3 3/4/4
f 9/1/1 1/9/9 10/10/10
f 1/9/9 7/8/8 10/11/10
f 7/8/8 8/7/7 10/12/10
f 8/7/7 2/2/2 10/13/10
f 2/2/2 9/1/1 10/14/10
