# This file uses centimeters as units for non-parametric coordinates.

mtllib const_barricade_06_lod.mtl
g default
v -0.945376 -0.000000 0.229334
v 0.954229 -0.000000 0.229334
v -0.945372 0.924289 0.146085
v 0.954229 0.924289 0.146085
v -0.945372 0.924289 -0.146077
v 0.954229 0.924289 -0.146077
v -0.945376 -0.000000 -0.229330
v 0.954229 -0.000000 -0.229330
v 0.954229 0.118844 0.229334
v -0.945376 0.118844 0.229334
v -0.945376 0.118844 -0.229330
v 0.954229 0.118844 -0.229330
v 0.954228 0.464424 0.146085
v -0.945377 0.464424 0.146085
v -0.945377 0.464424 -0.146077
v 0.954228 0.464424 -0.146077
v 0.954229 -0.000000 0.072002
v 0.954229 0.924289 0.072002
v -0.945372 0.924289 0.064755
v -0.945376 -0.000000 0.064755
v -0.945376 -0.000000 -0.064746
v -0.945372 0.924289 -0.064746
v 0.954229 0.924289 -0.071998
v 0.954229 -0.000000 -0.071998
v -0.825282 -0.000000 0.229334
v -0.825282 -0.000000 -0.229330
v 0.829496 -0.000000 0.229334
v 0.835658 0.920920 0.072002
v 0.835658 0.920920 -0.071998
v 0.829496 -0.000000 -0.229330
v 0.835737 -0.000000 0.072002
v 0.835737 -0.000000 -0.071998
v 0.787836 0.921813 -0.033832
v 0.787836 0.921813 0.033824
v 0.787752 -0.000000 -0.027820
v 0.787752 -0.000000 0.027812
v -1.096259 0.924289 0.036006
v -1.049055 0.924289 0.064755
v -1.096259 -0.000000 0.036006
v -1.049059 -0.000000 0.064755
v -1.049059 -0.000000 -0.064746
v -1.096259 -0.000000 -0.035997
v -1.049055 0.924289 -0.064746
v -1.096259 0.924289 -0.035997
v -0.714167 -0.000000 0.229334
v -0.714167 -0.000000 -0.229330
v 0.723242 -0.000000 -0.229330
v 0.723242 -0.000000 0.229334
v -0.054411 -0.000000 0.229334
v -0.054411 -0.000000 -0.229330
v 0.054963 -0.000000 -0.229330
v 0.054963 -0.000000 0.229334
v -0.714167 0.061496 0.229334
v -0.825282 0.061496 0.229334
v -0.825282 0.061496 -0.229330
v -0.714167 0.061496 -0.229330
v -0.054411 0.061496 -0.229330
v 0.054963 0.061496 -0.229330
v 0.723242 0.061496 -0.229330
v 0.829496 0.061496 -0.229330
v 0.829496 0.061496 0.229334
v 0.723242 0.061496 0.229334
v 0.054963 0.061496 0.229334
v -0.054411 0.061496 0.229334
v -0.261137 -0.000000 -0.229330
v -0.261137 0.061496 -0.229330
v -0.261137 0.061496 0.229334
v -0.261137 -0.000000 0.229334
v -0.507441 -0.000000 0.229334
v -0.507441 0.061496 0.229334
v -0.507441 0.061496 -0.229330
v -0.507441 -0.000000 -0.229330
v 0.499018 -0.000000 -0.229330
v 0.499018 0.061496 -0.229330
v 0.499018 0.061496 0.229334
v 0.499018 -0.000000 0.229334
v 0.254468 -0.000000 0.229334
v 0.254468 0.061496 0.229334
v 0.254468 0.061496 -0.229330
v 0.254468 -0.000000 -0.229330
v 0.824865 -0.000000 -0.072179
v 0.824865 0.061496 -0.072179
v 0.824865 -0.000000 0.073666
v 0.824865 0.061496 0.073666
v 0.777173 -0.000000 0.038098
v 0.777173 0.061496 0.038098
v 0.777173 0.061496 -0.036627
v 0.777173 -0.000000 -0.036627
vt 0.360943 0.730882
vt 0.360938 0.789634
vt 0.316563 0.730878
vt 0.187510 0.761957
vt 0.015785 0.789606
vt 0.015785 0.761944
vt 0.471886 0.795097
vt 0.471886 0.733637
vt 0.516266 0.733637
vt 0.645314 0.764726
vt 0.817040 0.764726
vt 0.817040 0.795097
vt 0.360938 0.931895
vt 0.360943 0.990647
vt 0.316563 0.990651
vt 0.187510 0.959572
vt 0.015785 0.931924
vt 0.015785 0.959587
vt 0.645315 0.951263
vt 0.817040 0.920892
vt 0.817040 0.951263
vt 0.516266 0.982352
vt 0.471887 0.982352
vt 0.471887 0.920892
vt 0.817040 0.844552
vt 0.817040 0.871437
vt 0.817040 0.882174
vt 0.817040 0.833815
vt 0.471886 0.871437
vt 0.471886 0.844552
vt 0.471886 0.882174
vt 0.471886 0.833815
vt 0.015785 0.871150
vt 0.015785 0.850379
vt 0.015785 0.833880
vt 0.015785 0.887649
vt 0.360934 0.850379
vt 0.360934 0.871150
vt 0.360934 0.833880
vt 0.360934 0.887650
vt 0.460122 0.846520
vt 0.437158 0.846519
vt 0.437158 0.787835
vt 0.460122 0.787835
vt 0.460122 0.859797
vt 0.437158 0.859797
vt 0.460122 0.887706
vt 0.437158 0.887706
vt 0.460122 0.900983
vt 0.437158 0.900983
vt 0.460122 0.959114
vt 0.437158 0.959114
vt 0.860460 0.535281
vt 0.860460 0.706559
vt 0.837496 0.706559
vt 0.837496 0.535281
vt 0.860606 0.505516
vt 0.837642 0.505516
vt 0.837642 0.334237
vt 0.860606 0.334237
vt 0.837009 0.107570
vt 0.859973 0.107570
vt 0.859973 0.278849
vt 0.837009 0.278849
vt 0.017005 0.992663
vt 0.017005 0.969699
vt 0.188284 0.969699
vt 0.188284 0.992664
vt 0.817518 0.957630
vt 0.817518 0.980595
vt 0.646239 0.980595
vt 0.646239 0.957630
vt 0.189689 0.724925
vt 0.189689 0.747889
vt 0.018410 0.747889
vt 0.018410 0.724925
vt 0.645402 0.748481
vt 0.645402 0.725518
vt 0.816681 0.725518
vt 0.816681 0.748481
vt 0.402674 0.788568
vt 0.425638 0.788568
vt 0.425638 0.959847
vt 0.402674 0.959847
vt 0.396706 0.959847
vt 0.373742 0.959847
vt 0.373742 0.788568
vt 0.396706 0.788568
vt 0.448981 0.754965
vt 0.400622 0.754965
vt 0.400622 0.716247
vt 0.448981 0.716247
vt 0.438243 0.772592
vt 0.411359 0.772592
vt 0.370251 0.716247
vt 0.479351 0.716247
vt 0.412166 0.069022
vt 0.437436 0.069022
vt 0.370251 0.006887
vt 0.397914 0.051164
vt 0.451688 0.051164
vt 0.479351 0.006887
vt 0.397914 0.006887
vt 0.451688 0.006887
vt 0.025097 0.716248
vt 0.025097 0.671401
vt 0.048061 0.671401
vt 0.069477 0.716248
vt 0.048061 0.629909
vt 0.048061 0.552711
vt 0.198525 0.716247
vt 0.025097 0.629909
vt 0.025097 0.552711
vt 0.048061 0.460736
vt 0.048061 0.383537
vt 0.025097 0.460736
vt 0.025097 0.383537
vt 0.048061 0.342696
vt 0.048061 0.268196
vt 0.048061 0.176873
vt 0.198525 0.006887
vt 0.069477 0.006887
vt 0.025097 0.342696
vt 0.025097 0.268196
vt 0.048061 0.093142
vt 0.048061 0.051123
vt 0.025097 0.176873
vt 0.025097 0.093142
vt 0.025097 0.051123
vt 0.025097 0.006887
vt 0.801540 0.671401
vt 0.824505 0.671401
vt 0.824505 0.716248
vt 0.780125 0.716248
vt 0.801540 0.629909
vt 0.651077 0.716248
vt 0.801540 0.552711
vt 0.801540 0.460735
vt 0.824505 0.629909
vt 0.824505 0.552711
vt 0.801540 0.383537
vt 0.801540 0.342696
vt 0.824505 0.460735
vt 0.824505 0.383537
vt 0.801540 0.268196
vt 0.780125 0.006887
vt 0.651077 0.006887
vt 0.801540 0.176873
vt 0.824505 0.342696
vt 0.824505 0.268196
vt 0.801540 0.051123
vt 0.801540 0.093142
vt 0.824505 0.006887
vt 0.824505 0.051123
vt 0.824505 0.176873
vt 0.824505 0.093142
vn 0.000000 0.000000 1.000000
vn 0.000000 0.000000 1.000000
vn 0.000000 0.000000 1.000000
vn 0.000000 0.000000 1.000000
vn 0.000000 0.000000 -1.000000
vn 0.000000 0.000000 -1.000000
vn 0.000000 0.000000 -1.000000
vn 0.000000 0.000000 -1.000000
vn 1.000000 -0.000000 0.000002
vn 1.000000 -0.000000 0.000002
vn 1.000000 -0.000000 0.000002
vn 1.000000 -0.000000 0.000002
vn -1.000000 0.000001 -0.000001
vn -1.000000 0.000001 -0.000001
vn -1.000000 0.000001 -0.000001
vn -1.000000 0.000001 -0.000001
vn 1.000000 0.000001 0.000000
vn 1.000000 0.000001 0.000000
vn 1.000000 0.000001 0.000000
vn 1.000000 0.000001 0.000000
vn -1.000000 0.000004 0.000008
vn -1.000000 0.000004 0.000008
vn -1.000000 0.000004 0.000008
vn -1.000000 0.000004 0.000008
vn 0.651891 0.002478 -0.758309
vn 0.651891 0.002478 -0.758309
vn 0.651891 0.002478 -0.758309
vn 0.651891 0.002478 -0.758309
vn -0.905542 0.000000 0.424257
vn -0.905542 0.000000 0.424257
vn -0.520232 0.000001 0.854025
vn -0.520232 0.000001 0.854025
vn -0.520232 0.000001 -0.854025
vn -0.520232 0.000001 -0.854025
vn -0.905542 0.000000 -0.424257
vn -0.905542 0.000000 -0.424257
vn 0.651891 0.002478 0.758309
vn 0.651891 0.002478 0.758309
vn 0.651891 0.002478 0.758309
vn 0.651891 0.002478 0.758309
vn 0.000000 0.000000 1.000000
vn 0.000000 0.000000 1.000000
vn 0.000000 0.000000 1.000000
vn 0.000000 0.000000 1.000000
vn 0.000000 0.000000 -1.000000
vn 0.000000 0.000000 -1.000000
vn 0.000000 0.000000 -1.000000
vn 0.000000 0.000000 -1.000000
vn 0.000000 0.000000 -1.000000
vn 0.000000 0.000000 -1.000000
vn 0.000000 0.000000 -1.000000
vn 0.000000 0.000000 -1.000000
vn 0.000000 0.000000 1.000000
vn 0.000000 0.000000 1.000000
vn 0.000000 0.000000 1.000000
vn 0.000000 0.000000 1.000000
vn -0.905542 0.000000 0.424257
vn -0.905542 0.000000 -0.424257
vn -0.905542 0.000000 -0.424257
vn -0.905542 0.000000 0.424257
vn 1.000000 -0.000089 0.000000
vn 1.000000 -0.000089 0.000000
vn 1.000000 -0.000089 0.000000
vn 1.000000 -0.000089 0.000000
vn 0.000000 1.000000 0.000000
vn 0.000000 1.000000 0.000000
vn 0.000000 1.000000 0.000000
vn 0.000000 1.000000 0.000000
vn 0.000000 0.000000 1.000000
vn 0.000000 0.000000 1.000000
vn 0.000000 0.000000 1.000000
vn 0.000000 0.000000 1.000000
vn 0.000000 0.000000 -1.000000
vn 0.000000 0.000000 -1.000000
vn 0.000000 0.000000 -1.000000
vn 0.000000 0.000000 -1.000000
vn 0.000000 1.000000 0.000000
vn 0.000000 1.000000 0.000000
vn 0.000000 1.000000 0.000000
vn 0.000000 1.000000 0.000000
vn 0.000000 0.000000 1.000000
vn 0.000000 0.000000 1.000000
vn 0.000000 0.000000 1.000000
vn 0.000000 0.000000 1.000000
vn 0.000000 0.102816 0.994700
vn 0.000000 0.102816 0.994700
vn 0.000000 0.233417 0.972377
vn 0.000000 0.233424 0.972375
vn 0.000000 0.000000 1.000000
vn 0.000000 0.102816 0.994700
vn 0.000000 0.102816 0.994700
vn 0.000000 0.000000 1.000000
vn 0.000000 0.102816 -0.994700
vn 0.000000 0.000000 -1.000000
vn 0.000000 0.000000 -1.000000
vn 0.000000 0.102816 -0.994700
vn 0.000000 0.233417 -0.972377
vn 0.000000 0.102816 -0.994700
vn 0.000000 0.102816 -0.994700
vn 0.000000 0.233424 -0.972375
vn -0.000000 0.000000 -1.000000
vn -0.000000 0.000000 -1.000000
vn -0.000000 0.000000 -1.000000
vn -0.000000 0.000000 -1.000000
vn 0.000000 0.000000 -1.000000
vn 0.000000 0.000000 -1.000000
vn 0.000000 0.000000 -1.000000
vn 0.000000 0.000000 -1.000000
vn 0.000000 0.000000 1.000000
vn 0.000000 0.000000 1.000000
vn 0.000000 0.000000 1.000000
vn 0.000000 0.000000 1.000000
vn -0.000000 0.000000 1.000000
vn -0.000000 0.000000 1.000000
vn -0.000000 0.000000 1.000000
vn 0.000000 0.000000 -1.000000
vn 0.000000 0.000000 -1.000000
vn 0.000000 0.000000 -1.000000
vn 0.000000 0.000000 -1.000000
vn 0.000000 0.000000 1.000000
vn 0.000000 0.000000 1.000000
vn 0.000000 0.000000 1.000000
vn 0.000000 0.000000 1.000000
vn 0.000000 0.000000 -1.000000
vn 0.000000 0.000000 -1.000000
vn 0.000000 0.000000 -1.000000
vn 0.000000 0.000000 -1.000000
vn 0.000000 0.000000 -1.000000
vn 0.000000 0.000000 -1.000000
vn 0.000000 0.000000 -1.000000
vn 0.000000 0.000000 1.000000
vn 0.000000 0.000000 1.000000
vn 0.000000 0.000000 1.000000
vn 0.000000 0.000000 1.000000
vn -0.999567 0.000000 -0.029442
vn -0.999567 0.000000 -0.029442
vn -0.999567 0.000000 -0.029442
vn -0.999567 0.000000 -0.029442
vn 1.000000 0.000000 0.000000
vn 1.000000 0.000000 0.000000
vn 1.000000 0.000000 0.000000
vn 1.000000 0.000000 0.000000
vn -1.000000 0.000000 0.000000
vn -1.000000 0.000000 0.000000
vn -1.000000 0.000000 0.000000
vn -1.000000 0.000000 0.000000
vn 1.000000 0.000000 0.000000
vn 1.000000 0.000000 0.000000
vn 1.000000 0.000000 0.000000
vn 1.000000 0.000000 0.000000
vn 1.000000 0.000000 0.000000
vn 1.000000 0.000000 0.000000
vn 1.000000 0.000000 0.000000
vn 1.000000 0.000000 0.000000
vn -1.000000 0.000000 0.000000
vn -1.000000 0.000000 0.000000
vn -1.000000 0.000000 0.000000
vn -1.000000 0.000000 0.000000
vn -1.000000 0.000000 0.000000
vn -1.000000 0.000000 0.000000
vn -1.000000 0.000000 0.000000
vn -1.000000 0.000000 0.000000
vn 1.000000 0.000000 0.000000
vn 1.000000 0.000000 0.000000
vn 1.000000 0.000000 0.000000
vn 1.000000 0.000000 0.000000
vn -1.000000 0.000000 0.000000
vn -1.000000 0.000000 0.000000
vn -1.000000 0.000000 0.000000
vn -1.000000 0.000000 0.000000
vn 1.000000 0.000000 0.000000
vn 1.000000 0.000000 0.000000
vn 1.000000 0.000000 0.000000
vn 1.000000 0.000000 0.000000
vn -1.000000 0.000000 0.000000
vn -1.000000 0.000000 0.000000
vn -1.000000 0.000000 0.000000
vn -1.000000 0.000000 0.000000
vn -0.999558 0.000000 0.029722
vn -0.999558 0.000000 0.029722
vn -0.999558 0.000000 0.029722
vn -0.999558 0.000000 0.029722
vn -0.597698 0.000000 0.801721
vn -0.597698 0.000000 0.801721
vn -0.597698 0.000000 0.801721
vn -0.597698 0.000000 0.801721
vn -0.597698 0.000000 -0.801721
vn -0.597698 0.000000 -0.801721
vn -0.597698 0.000000 -0.801721
vn -0.597698 0.000000 -0.801721
vn 0.000000 0.000000 1.000000
vn 0.000000 0.000000 1.000000
vn 0.000000 0.000000 1.000000
vn -0.028407 0.999596 0.000000
vn -0.028407 0.999596 0.000000
vn -0.028407 0.999596 0.000000
vn 0.000000 0.000000 -1.000000
vn 0.000000 0.000000 -1.000000
vn 0.000000 0.000000 -1.000000
vn 0.000000 0.000000 -1.000000
vn 0.000000 0.000000 -1.000000
vn 0.000000 0.000000 -1.000000
vn 0.000000 0.000000 -1.000000
vn 0.000000 0.000000 -1.000000
vn 0.000000 0.000000 -1.000000
vn 0.000000 0.000000 -1.000000
vn 0.000000 0.000000 -1.000000
vn 0.000000 0.000000 -1.000000
vn 0.000000 0.000000 1.000000
vn 0.000000 0.000000 1.000000
vn 0.000000 0.000000 1.000000
vn 0.000000 0.000000 1.000000
vn 0.000000 0.000000 1.000000
vn 0.000000 0.000000 1.000000
vn 0.000000 0.000000 1.000000
vn 0.000000 0.000000 1.000000
vn 0.000000 0.000000 1.000000
vn 0.001865 0.999976 0.006727
vn 0.001865 0.999976 0.006727
vn 0.001865 0.999976 0.006727
vn 0.001865 0.999976 0.006727
vn -0.028407 0.999596 0.000000
vn -0.028407 0.999596 0.000000
vn -0.028407 0.999596 0.000000
vn 0.001429 0.999999 0.000000
vn 0.001429 0.999999 0.000000
vn 0.001429 0.999999 0.000000
vn 0.001429 0.999999 0.000000
vn 0.000000 0.998967 0.045440
vn 0.000000 0.998967 0.045440
vn 0.000000 0.998967 0.045440
vn 0.000000 0.998967 -0.045440
vn 0.000000 0.998967 -0.045440
vn 0.000000 0.998967 -0.045440
vn 0.001865 0.999976 -0.006727
vn 0.001865 0.999976 -0.006727
vn 0.001865 0.999976 -0.006727
vn 0.001865 0.999976 -0.006727
vn 0.000000 0.233417 -0.972377
vn 0.000000 0.233424 -0.972375
vn 0.000000 0.000000 -1.000000
vn 0.000000 0.000000 -1.000000
vn 0.000000 0.000000 -1.000000
vn 0.000000 0.000000 -1.000000
vn 0.000000 0.000000 -1.000000
vn 0.000000 0.000000 -1.000000
vn 0.000000 0.000000 -1.000000
vn 0.000000 0.000000 -1.000000
vn 0.000000 0.000000 -1.000000
vn -0.000000 0.000000 -1.000000
vn -0.000000 0.000000 -1.000000
vn 0.000000 0.233424 0.972375
vn 0.000000 0.233417 0.972377
vn 0.000000 0.000000 1.000000
vn 0.000000 0.000000 1.000000
vn 0.000000 0.000000 1.000000
vn 0.000000 0.000000 1.000000
vn 0.000000 0.000000 1.000000
vn 0.000000 0.000000 1.000000
vn 0.000000 0.000000 1.000000
vn 0.000000 0.000000 1.000000
vn 0.000000 0.000000 1.000000
vn 0.000000 0.000000 1.000000
vn 0.000000 0.000000 1.000000
vn -1.000000 0.000001 0.000001
vn -1.000000 0.000001 0.000001
vn -1.000000 0.000001 0.000001
vn -1.000000 0.000001 0.000001
vn -1.000000 0.000004 -0.000008
vn -1.000000 0.000004 -0.000008
vn -1.000000 0.000004 -0.000008
vn -1.000000 0.000004 -0.000008
vn 1.000000 -0.000000 -0.000002
vn 1.000000 -0.000000 -0.000002
vn 1.000000 -0.000000 -0.000002
vn 1.000000 -0.000000 -0.000002
vn 1.000000 0.000001 -0.000000
vn 1.000000 0.000001 -0.000000
vn 1.000000 0.000001 -0.000000
vn 1.000000 0.000001 -0.000000
s off
g Gen_const_barricade_06_lod_001
usemtl blinn7SG
f 1/105/1 25/106/2 54/107/3 10/108/4
f 55/131/5 26/132/6 7/133/7 11/134/8
f 13/4/9 17/2/10 18/5/11 4/6/12
f 20/7/13 1/8/14 10/9/15 14/10/16
f 24/13/17 8/14/18 12/15/19 16/16/20
f 15/19/21 21/24/22 22/20/23 5/21/24
f 28/35/25 31/39/26 36/37/27 34/34/28
f 37/25/29 39/30/30 40/32/31 38/28/32
f 43/27/33 41/31/34 42/29/35 44/26/36
f 33/33/37 35/38/38 32/40/39 29/36/40
f 61/126/41 27/129/42 2/130/43 9/122/44
f 12/146/45 8/153/46 30/154/47 60/151/48
f 28/35/49 18/5/50 17/2/51 31/39/52
f 29/36/53 32/40/54 24/13/55 23/17/56
f 37/25/57 44/26/58 42/29/59 39/30/60
f 33/33/61 34/34/62 36/37/63 35/38/64
f 43/89/65 38/90/66 19/91/67 22/92/68
f 38/28/69 40/32/70 20/7/71 19/12/72
f 43/27/73 22/20/74 21/24/75 41/31/76
f 44/93/77 37/94/78 38/90/79 43/89/80
f 68/116/81 49/117/82 64/115/83 67/114/84
f 13/121/85 14/111/86 10/108/87 9/122/88
f 3/95/89 14/111/90 13/121/91 4/99/92
f 15/136/93 5/96/94 6/102/95 16/147/96
f 11/134/97 15/136/98 16/147/99 12/146/100
f 65/143/101 66/138/102 57/141/103 50/144/104
f 73/155/105 74/148/106 59/152/107 47/156/108
f 76/127/109 48/128/110 62/125/111 75/120/112
f 67/114/113 10/108/114 70/110/115
f 46/139/116 56/135/117 71/137/118 72/140/119
f 45/112/120 69/113/121 70/110/122 53/109/123
f 51/149/124 58/142/125 79/145/126 80/150/127
f 59/152/128 12/146/129 60/151/130
f 52/123/131 77/124/132 78/119/133 63/118/134
f 81/41/135 82/42/136 60/43/137 30/44/138
f 48/53/139 47/54/140 59/55/141 62/56/142
f 45/57/143 53/58/144 56/59/145 46/60/146
f 54/61/147 25/62/148 26/63/149 55/64/150
f 64/65/151 49/66/152 50/67/153 57/68/154
f 52/69/155 63/70/156 58/71/157 51/72/158
f 68/73/159 67/74/160 66/75/161 65/76/162
f 70/77/163 69/78/164 72/79/165 71/80/166
f 76/81/167 75/82/168 74/83/169 73/84/170
f 78/85/171 77/86/172 80/87/173 79/88/174
f 85/47/175 86/48/176 87/46/177 88/45/178
f 27/51/179 61/52/180 84/50/181 83/49/182
f 83/49/183 84/50/184 86/48/185 85/47/186
f 82/42/187 81/41/188 88/45/189 87/46/190
f 53/109/191 10/108/192 54/107/193
f 28/100/194 4/99/195 18/103/196
f 11/134/197 71/137/198 56/135/199
f 74/148/200 12/146/201 59/152/202
f 11/134/203 56/135/204 55/131/205
f 79/145/206 12/146/207 74/148/208
f 70/110/209 10/108/210 53/109/211
f 9/122/212 62/125/213 61/126/214
f 75/120/215 62/125/216 9/122/217
f 3/95/218 28/100/219 34/97/220 19/91/221
f 6/102/222 29/101/223 23/104/224
f 19/91/225 34/97/226 33/98/227 22/92/228
f 5/96/229 29/101/230 6/102/231
f 3/95/232 4/99/233 28/100/234
f 5/96/235 22/92/236 33/98/237 29/101/238
f 11/134/239 12/146/240 58/142/241 57/141/242
f 58/142/243 12/146/244 79/145/245
f 11/134/246 66/138/247 71/137/248
f 11/134/249 57/141/250 66/138/251
f 9/122/252 10/108/253 64/115/254 63/118/255
f 64/115/256 10/108/257 67/114/258
f 9/122/259 78/119/260 75/120/261
f 9/122/262 63/118/263 78/119/264
f 21/24/265 15/19/266 11/22/267 7/23/268
f 19/12/269 20/7/270 14/10/271 3/11/272
f 23/17/273 24/13/274 16/16/275 6/18/276
f 17/2/277 13/4/278 9/3/279 2/1/280
