# This file uses centimeters as units for non-parametric coordinates.

mtllib const_barricade_03_b_lod.mtl
g default
v 0.648396 1.320998 -0.019393
v 0.694734 1.320998 -0.019393
v 0.648396 1.320998 -0.058166
v 0.694734 1.320998 -0.058166
v 0.648396 0.159498 -0.019393
v 0.694734 0.159498 -0.019393
v 0.648396 0.159498 -0.058166
v 0.694734 0.159498 -0.058166
v -0.658065 1.320998 -0.019393
v -0.704399 1.320998 -0.019393
v -0.658065 1.320998 -0.058166
v -0.704399 1.320998 -0.058166
v -0.658065 0.159498 -0.058166
v -0.704399 0.159498 -0.058166
v -0.658065 0.159498 -0.019393
v -0.704399 0.159498 -0.019393
v 0.703854 0.159498 -0.010265
v 0.639279 0.159498 -0.010265
v 0.639279 0.159498 -0.067277
v 0.703854 0.159498 -0.067277
v 0.703854 -0.000000 -0.067277
v 0.639279 -0.000000 -0.067277
v 0.703854 -0.000000 -0.010265
v 0.639279 -0.000000 -0.010265
v -0.713519 0.159498 -0.010265
v -0.648947 0.159498 -0.010265
v -0.648947 0.159498 -0.067277
v -0.713519 0.159498 -0.067277
v -0.648947 -0.000000 -0.010265
v -0.648947 -0.000000 -0.067277
v -0.713519 -0.000000 -0.067277
v -0.713519 -0.000000 -0.010265
v -1.077875 0.286398 0.019380
v 1.077878 0.286398 0.019380
v -1.077875 0.468361 0.019380
v 1.077878 0.468361 0.019380
v -1.077875 0.468361 -0.019393
v 1.077878 0.468361 -0.019393
v -1.077875 0.286398 -0.019393
v 1.077878 0.286398 -0.019393
v -1.077875 0.704098 0.019380
v 1.077878 0.704098 0.019380
v -1.077875 0.886061 0.019380
v 1.077878 0.886061 0.019380
v -1.077875 0.886061 -0.019393
v 1.077878 0.886061 -0.019393
v -1.077875 0.704098 -0.019393
v 1.077878 0.704098 -0.019393
v -1.077875 1.088145 0.019380
v 1.077878 1.088145 0.019380
v -1.077875 1.270108 0.019380
v 1.077878 1.270108 0.019380
v -1.077875 1.270108 -0.019393
v 1.077878 1.270108 -0.019393
v -1.077875 1.088145 -0.019393
v 1.077878 1.088145 -0.019393
v 0.639279 -0.000000 0.365846
v 0.639279 0.057520 0.365846
v 0.632871 0.057520 0.365846
v 0.639279 0.057520 -0.443398
v 0.639279 -0.000000 -0.443398
v 0.632871 0.057520 -0.443398
v 0.632871 -0.005225 0.365846
v 0.632871 -0.005225 -0.443398
v 0.703854 -0.000000 0.365846
v 0.703854 -0.005225 0.365846
v 0.703854 -0.000000 -0.443398
v 0.703854 -0.005225 -0.443398
v -0.648947 -0.000000 0.365846
v -0.648947 0.057520 0.365846
v -0.642535 0.057520 0.365846
v -0.648947 0.057520 -0.443398
v -0.648947 -0.000000 -0.443398
v -0.642535 0.057520 -0.443398
v -0.642535 -0.005225 0.365846
v -0.642535 -0.005225 -0.443398
v -0.713519 -0.000000 0.365846
v -0.713519 -0.005225 0.365846
v -0.713519 -0.000000 -0.443398
v -0.713519 -0.005225 -0.443398
vt 0.343499 0.988716
vt 0.312131 0.988716
vt 0.312131 0.962464
vt 0.343499 0.962464
vt 0.401119 0.176138
vt 0.401119 0.962464
vt 0.369751 0.962464
vt 0.369751 0.176138
vt 0.343499 0.176138
vt 0.312131 0.176138
vt 0.285879 0.962464
vt 0.285879 0.176138
vt 0.343499 0.988716
vt 0.343499 0.962464
vt 0.312131 0.962464
vt 0.312131 0.988716
vt 0.343499 0.176138
vt 0.312131 0.176138
vt 0.369751 0.176138
vt 0.369751 0.962464
vt 0.401119 0.176138
vt 0.401119 0.962464
vt 0.285879 0.176138
vt 0.285879 0.962464
vt 0.860633 0.095746
vt 0.829700 0.095746
vt 0.829700 0.019340
vt 0.860633 0.019340
vt 0.802387 0.095746
vt 0.802387 0.019340
vt 0.330891 0.003333
vt 0.330891 0.041029
vt 0.288199 0.041029
vt 0.288199 0.003333
vt 0.887945 0.095746
vt 0.887945 0.019341
vt 0.771454 0.095746
vt 0.771454 0.019341
vt 0.887945 0.095746
vt 0.887945 0.019341
vt 0.860633 0.019340
vt 0.860633 0.095746
vt 0.802387 0.019340
vt 0.771454 0.019341
vt 0.771454 0.095746
vt 0.802387 0.095746
vt 0.829700 0.095746
vt 0.829700 0.019340
vt 0.288199 0.003334
vt 0.330891 0.003334
vt 0.330891 0.041029
vt 0.288199 0.041029
vt 0.010034 0.996741
vt 0.010034 0.002402
vt 0.112699 0.002402
vt 0.112699 0.996741
vt 0.134577 0.002402
vt 0.134577 0.996741
vt 0.237242 0.002402
vt 0.237242 0.996741
vt 0.259121 0.002402
vt 0.259121 0.996741
vt 0.322396 0.050015
vt 0.340344 0.050015
vt 0.340344 0.152680
vt 0.322396 0.152680
vt 0.278984 0.050015
vt 0.296932 0.050015
vt 0.296932 0.152680
vt 0.278984 0.152680
vt 0.010034 0.996741
vt 0.010034 0.002402
vt 0.112699 0.002402
vt 0.112699 0.996741
vt 0.134577 0.002402
vt 0.134577 0.996741
vt 0.237242 0.002402
vt 0.237242 0.996741
vt 0.259121 0.002402
vt 0.259121 0.996741
vt 0.322396 0.050015
vt 0.340344 0.050015
vt 0.340344 0.152680
vt 0.322396 0.152680
vt 0.278984 0.050015
vt 0.296932 0.050015
vt 0.296932 0.152680
vt 0.278984 0.152680
vt 0.010034 0.996741
vt 0.010034 0.002402
vt 0.112699 0.002402
vt 0.112699 0.996741
vt 0.134577 0.002402
vt 0.134577 0.996741
vt 0.237242 0.002402
vt 0.237242 0.996741
vt 0.259121 0.002402
vt 0.259121 0.996741
vt 0.322396 0.050015
vt 0.340344 0.050015
vt 0.340344 0.152680
vt 0.322396 0.152680
vt 0.278984 0.050015
vt 0.296932 0.050015
vt 0.296932 0.152680
vt 0.278984 0.152680
vt 0.709661 0.012180
vt 0.714859 0.012179
vt 0.714859 0.038207
vt 0.709661 0.038207
vt 0.373977 0.120463
vt 0.373977 0.096603
vt 0.709661 0.096603
vt 0.709661 0.120463
vt 0.373977 0.012179
vt 0.373977 0.007348
vt 0.709661 0.007348
vt 0.373977 0.038207
vt 0.368780 0.038207
vt 0.368780 0.012179
vt 0.709661 0.067650
vt 0.709661 0.069818
vt 0.373977 0.069818
vt 0.373977 0.067650
vt 0.368780 0.067650
vt 0.714859 0.067650
vt 0.709661 0.012180
vt 0.709661 0.038207
vt 0.714859 0.038207
vt 0.714859 0.012179
vt 0.373977 0.120463
vt 0.709661 0.120463
vt 0.709661 0.096603
vt 0.373977 0.096603
vt 0.373977 0.012179
vt 0.709661 0.007348
vt 0.373977 0.007348
vt 0.373977 0.067650
vt 0.373977 0.069818
vt 0.709661 0.069818
vt 0.709661 0.067650
vt 0.368780 0.012179
vt 0.368780 0.038207
vt 0.373977 0.038207
vt 0.368780 0.067650
vt 0.714859 0.067650
vn 0.000000 1.000000 0.000000
vn 0.000000 1.000000 0.000000
vn 0.000000 1.000000 0.000000
vn 0.000000 1.000000 0.000000
vn 0.000000 0.000000 1.000000
vn 0.000000 0.000000 1.000000
vn 0.000000 0.000000 1.000000
vn 0.000000 0.000000 1.000000
vn -1.000000 0.000000 0.000000
vn -1.000000 0.000000 0.000000
vn -1.000000 0.000000 0.000000
vn -1.000000 0.000000 0.000000
vn 0.000000 0.000000 -1.000000
vn 0.000000 0.000000 -1.000000
vn 0.000000 0.000000 -1.000000
vn 0.000000 0.000000 -1.000000
vn 1.000000 0.000000 0.000000
vn 1.000000 0.000000 0.000000
vn 1.000000 0.000000 0.000000
vn 1.000000 0.000000 0.000000
vn 0.000000 1.000000 0.000000
vn 0.000000 1.000000 0.000000
vn 0.000000 1.000000 0.000000
vn 0.000000 1.000000 0.000000
vn 0.000000 0.000000 -1.000000
vn 0.000000 0.000000 -1.000000
vn 0.000000 0.000000 -1.000000
vn 0.000000 0.000000 -1.000000
vn 1.000000 0.000000 0.000000
vn 1.000000 0.000000 0.000000
vn 1.000000 0.000000 0.000000
vn 1.000000 0.000000 0.000000
vn 0.000000 0.000000 1.000000
vn 0.000000 0.000000 1.000000
vn 0.000000 0.000000 1.000000
vn 0.000000 0.000000 1.000000
vn -1.000000 0.000000 0.000000
vn -1.000000 0.000000 0.000000
vn -1.000000 0.000000 0.000000
vn -1.000000 0.000000 0.000000
vn 0.000000 0.000000 1.000000
vn 0.000000 0.000000 1.000000
vn 0.000000 0.000000 1.000000
vn 0.000000 0.000000 1.000000
vn 1.000000 0.000000 0.000000
vn 1.000000 0.000000 0.000000
vn 1.000000 0.000000 0.000000
vn 1.000000 0.000000 0.000000
vn 0.000000 1.000000 0.000000
vn 0.000000 1.000000 0.000000
vn 0.000000 1.000000 0.000000
vn 0.000000 1.000000 0.000000
vn -1.000000 0.000000 0.000000
vn -1.000000 0.000000 0.000000
vn -1.000000 0.000000 0.000000
vn -1.000000 0.000000 0.000000
vn 0.000000 0.000000 -1.000000
vn 0.000000 0.000000 -1.000000
vn 0.000000 0.000000 -1.000000
vn 0.000000 0.000000 -1.000000
vn 1.000000 0.000000 0.000000
vn 1.000000 0.000000 0.000000
vn 1.000000 0.000000 0.000000
vn 1.000000 0.000000 0.000000
vn 0.000000 0.000000 -1.000000
vn 0.000000 0.000000 -1.000000
vn 0.000000 0.000000 -1.000000
vn 0.000000 0.000000 -1.000000
vn -1.000000 0.000000 0.000000
vn -1.000000 0.000000 0.000000
vn -1.000000 0.000000 0.000000
vn -1.000000 0.000000 0.000000
vn 0.000000 0.000000 1.000000
vn 0.000000 0.000000 1.000000
vn 0.000000 0.000000 1.000000
vn 0.000000 0.000000 1.000000
vn 0.000000 1.000000 0.000000
vn 0.000000 1.000000 0.000000
vn 0.000000 1.000000 0.000000
vn 0.000000 1.000000 0.000000
vn 0.000000 0.000000 1.000000
vn 0.000000 0.000000 1.000000
vn 0.000000 0.000000 1.000000
vn 0.000000 0.000000 1.000000
vn 0.000000 1.000000 0.000000
vn 0.000000 1.000000 0.000000
vn 0.000000 1.000000 0.000000
vn 0.000000 1.000000 0.000000
vn 0.000000 0.000000 -1.000000
vn 0.000000 0.000000 -1.000000
vn 0.000000 0.000000 -1.000000
vn 0.000000 0.000000 -1.000000
vn 0.000000 -1.000000 0.000000
vn 0.000000 -1.000000 0.000000
vn 0.000000 -1.000000 0.000000
vn 0.000000 -1.000000 0.000000
vn 1.000000 0.000000 0.000000
vn 1.000000 0.000000 0.000000
vn 1.000000 0.000000 0.000000
vn 1.000000 0.000000 0.000000
vn -1.000000 0.000000 0.000000
vn -1.000000 0.000000 0.000000
vn -1.000000 0.000000 0.000000
vn -1.000000 0.000000 0.000000
vn 0.000000 0.000000 1.000000
vn 0.000000 0.000000 1.000000
vn 0.000000 0.000000 1.000000
vn 0.000000 0.000000 1.000000
vn 0.000000 1.000000 0.000000
vn 0.000000 1.000000 0.000000
vn 0.000000 1.000000 0.000000
vn 0.000000 1.000000 0.000000
vn 0.000000 0.000000 -1.000000
vn 0.000000 0.000000 -1.000000
vn 0.000000 0.000000 -1.000000
vn 0.000000 0.000000 -1.000000
vn 0.000000 -1.000000 0.000000
vn 0.000000 -1.000000 0.000000
vn 0.000000 -1.000000 0.000000
vn 0.000000 -1.000000 0.000000
vn 1.000000 0.000000 0.000000
vn 1.000000 0.000000 0.000000
vn 1.000000 0.000000 0.000000
vn 1.000000 0.000000 0.000000
vn -1.000000 0.000000 0.000000
vn -1.000000 0.000000 0.000000
vn -1.000000 0.000000 0.000000
vn -1.000000 0.000000 0.000000
vn 0.000000 0.000000 1.000000
vn 0.000000 0.000000 1.000000
vn 0.000000 0.000000 1.000000
vn 0.000000 0.000000 1.000000
vn 0.000000 1.000000 0.000000
vn 0.000000 1.000000 0.000000
vn 0.000000 1.000000 0.000000
vn 0.000000 1.000000 0.000000
vn 0.000000 0.000000 -1.000000
vn 0.000000 0.000000 -1.000000
vn 0.000000 0.000000 -1.000000
vn 0.000000 0.000000 -1.000000
vn 0.000000 -1.000000 0.000000
vn 0.000000 -1.000000 0.000000
vn 0.000000 -1.000000 0.000000
vn 0.000000 -1.000000 0.000000
vn 1.000000 0.000000 0.000000
vn 1.000000 0.000000 0.000000
vn 1.000000 0.000000 0.000000
vn 1.000000 0.000000 0.000000
vn -1.000000 0.000000 0.000000
vn -1.000000 0.000000 0.000000
vn -1.000000 0.000000 0.000000
vn -1.000000 0.000000 0.000000
vn 0.000000 0.000000 -1.000000
vn 0.000000 0.000000 -1.000000
vn -0.000000 0.000000 -1.000000
vn -0.000000 0.000000 -1.000000
vn 1.000000 0.000000 0.000000
vn 1.000000 0.000000 0.000000
vn 1.000000 0.000000 0.000000
vn 1.000000 0.000000 0.000000
vn 0.000000 1.000000 0.000000
vn 0.000000 1.000000 0.000000
vn 0.000000 1.000000 0.000000
vn 0.000000 1.000000 0.000000
vn -1.000000 0.000000 0.000000
vn -1.000000 0.000000 0.000000
vn -1.000000 0.000000 0.000000
vn -1.000000 0.000000 0.000000
vn 0.000006 0.000000 1.000000
vn 0.000003 0.000000 1.000000
vn 0.000003 0.000000 1.000000
vn 0.000006 0.000000 1.000000
vn 1.000000 0.000000 0.000000
vn 1.000000 0.000000 0.000000
vn 1.000000 0.000000 0.000000
vn 1.000000 0.000000 0.000000
vn 0.000003 0.000000 1.000000
vn 0.000003 0.000000 1.000000
vn 0.000000 0.000000 1.000000
vn 0.000000 0.000000 1.000000
vn 0.000000 -1.000000 0.000000
vn 0.000000 -1.000000 0.000000
vn 0.000000 -1.000000 0.000000
vn 0.000000 -1.000000 0.000000
vn -0.000000 1.000000 0.000000
vn -0.000000 1.000000 0.000000
vn -0.000000 1.000000 0.000000
vn -0.000000 1.000000 0.000000
vn -0.000000 0.000000 -1.000000
vn -0.000000 0.000000 -1.000000
vn -0.000000 0.000000 -1.000000
vn -0.000000 0.000000 -1.000000
vn 0.000000 0.000000 -1.000000
vn 0.000000 0.000000 -1.000000
vn 0.000000 0.000000 -1.000000
vn 0.000000 0.000000 -1.000000
vn -1.000000 0.000000 0.000000
vn -1.000000 0.000000 0.000000
vn -1.000000 0.000000 0.000000
vn -1.000000 0.000000 0.000000
vn 0.000000 1.000000 0.000000
vn 0.000000 1.000000 0.000000
vn 0.000000 1.000000 0.000000
vn 0.000000 1.000000 0.000000
vn -1.000000 0.000000 0.000000
vn -1.000000 0.000000 0.000000
vn -1.000000 0.000000 0.000000
vn -1.000000 0.000000 0.000000
vn -0.000006 0.000000 1.000000
vn -0.000006 0.000000 1.000000
vn -0.000003 0.000000 1.000000
vn -0.000003 0.000000 1.000000
vn 1.000000 0.000000 0.000000
vn 1.000000 0.000000 0.000000
vn 1.000000 0.000000 0.000000
vn 1.000000 0.000000 0.000000
vn 0.000000 1.000000 0.000000
vn 0.000000 1.000000 0.000000
vn 0.000000 1.000000 0.000000
vn 0.000000 1.000000 0.000000
vn -0.000003 0.000000 1.000000
vn 0.000000 0.000000 1.000000
vn 0.000000 0.000000 1.000000
vn -0.000003 0.000000 1.000000
vn -0.000000 -1.000000 0.000000
vn -0.000000 -1.000000 0.000000
vn -0.000000 -1.000000 0.000000
vn -0.000000 -1.000000 0.000000
vn 0.000000 0.000000 -1.000000
vn 0.000001 0.000000 -1.000000
vn 0.000001 0.000000 -1.000000
vn 0.000000 0.000000 -1.000000
s off
g Gen_const_barricade_03_b_lod_001
usemtl blinn4SG
f 1/1/1 2/2/2 4/3/3 3/4/4
f 6/5/5 2/6/6 1/7/7 5/8/8
f 5/8/9 1/7/10 3/4/11 7/9/12
f 3/4/13 4/3/14 8/10/15 7/9/16
f 4/3/17 2/11/18 6/12/19 8/10/20
f 9/13/21 11/14/22 12/15/23 10/16/24
f 11/14/25 13/17/26 14/18/27 12/15/28
f 15/19/29 13/17/30 11/14/31 9/20/32
f 16/21/33 15/19/34 9/20/35 10/22/36
f 12/15/37 14/18/38 16/23/39 10/24/40
f 24/25/41 23/26/42 17/27/43 18/28/44
f 23/26/45 21/29/46 20/30/47 17/27/48
f 17/31/49 20/32/50 19/33/51 18/34/52
f 22/35/53 24/25/54 18/28/55 19/36/56
f 20/30/57 21/29/58 22/37/59 19/38/60
f 30/39/61 27/40/62 26/41/63 29/42/64
f 28/43/65 27/44/66 30/45/67 31/46/68
f 32/47/69 25/48/70 28/43/71 31/46/72
f 29/42/73 26/41/74 25/48/75 32/47/76
f 25/49/77 26/50/78 27/51/79 28/52/80
f 33/53/81 34/54/82 36/55/83 35/56/84
f 35/56/85 36/55/86 38/57/87 37/58/88
f 37/58/89 38/57/90 40/59/91 39/60/92
f 39/60/93 40/59/94 34/61/95 33/62/96
f 34/63/97 40/64/98 38/65/99 36/66/100
f 39/67/101 33/68/102 35/69/103 37/70/104
f 41/71/105 42/72/106 44/73/107 43/74/108
f 43/74/109 44/73/110 46/75/111 45/76/112
f 45/76/113 46/75/114 48/77/115 47/78/116
f 47/78/117 48/77/118 42/79/119 41/80/120
f 42/81/121 48/82/122 46/83/123 44/84/124
f 47/85/125 41/86/126 43/87/127 45/88/128
f 49/89/129 50/90/130 52/91/131 51/92/132
f 51/92/133 52/91/134 54/93/135 53/94/136
f 53/94/137 54/93/138 56/95/139 55/96/140
f 55/96/141 56/95/142 50/97/143 49/98/144
f 50/99/145 56/100/146 54/101/147 52/102/148
f 55/103/149 49/104/150 51/105/151 53/106/152
f 62/107/153 60/108/154 61/109/155 64/110/156
f 60/114/157 58/111/158 57/112/159 61/113/160
f 59/115/161 58/116/162 60/117/163 62/107/164
f 63/118/165 59/115/166 62/107/167 64/110/168
f 59/115/169 63/118/170 57/119/171 58/120/172
f 68/121/173 67/122/174 65/123/175 66/124/176
f 57/119/177 63/118/178 66/124/179 65/125/180
f 66/124/181 63/118/182 64/110/183 68/121/184
f 65/123/185 67/122/186 61/113/187 57/112/188
f 64/110/189 61/109/190 67/126/191 68/121/192
f 74/127/193 76/128/194 73/129/195 72/130/196
f 70/131/197 72/132/198 73/133/199 69/134/200
f 71/135/201 74/127/202 72/136/203 70/137/204
f 78/138/205 77/139/206 79/140/207 80/141/208
f 71/135/209 70/142/210 69/143/211 75/144/212
f 75/144/213 76/128/214 74/127/215 71/135/216
f 77/139/217 69/134/218 73/133/219 79/140/220
f 69/143/221 77/145/222 78/138/223 75/144/224
f 78/138/225 80/141/226 76/128/227 75/144/228
f 76/128/229 80/141/230 79/146/231 73/129/232
