# This file uses centimeters as units for non-parametric coordinates.

mtllib const_barrels_02_lod2.mtl
g default
v 0.295684 0.000201 -0.170705
v -0.000002 0.000201 -0.341419
v -0.295683 0.000201 -0.170705
v -0.295683 0.000201 0.170701
v -0.000002 0.000201 0.341431
v 0.295684 0.000201 0.170701
v -0.000002 1.014885 0.389156
v -0.337015 1.014885 0.194564
v -0.337015 1.014885 -0.194568
v -0.000002 1.014885 -0.389160
v 0.337015 1.014885 -0.194568
v 0.337015 1.014885 0.194564
v -0.000002 0.148033 0.389156
v -0.337015 0.148033 0.194564
v -0.337015 0.148033 -0.194568
v -0.000002 0.148033 -0.389160
v 0.337015 0.148033 -0.194568
v 0.337015 0.148033 0.194564
v 0.295684 1.194866 -0.170705
v -0.000002 1.194866 -0.341419
v -0.295683 1.194866 -0.170705
v -0.295683 1.194866 0.170701
v -0.000002 1.194866 0.341431
v 0.295684 1.194866 0.170701
v 0.319174 1.235498 -0.184267
v -0.000002 1.235498 -0.368547
v -0.319174 1.235498 -0.184267
v -0.319174 1.235498 0.184280
v -0.000002 1.235498 0.368547
v 0.319174 1.235498 0.184280
v 0.287966 1.195041 -0.166262
v -0.000002 1.195041 -0.332506
v -0.287965 1.195041 -0.166262
v -0.287965 1.195041 0.166258
v -0.000002 1.195041 0.332502
v 0.287966 1.195041 0.166258
vt 0.969236 0.776532
vt 0.845479 0.705082
vt 0.721723 0.776532
vt 0.721723 0.919434
vt 0.845479 0.990884
vt 0.969236 0.919434
vt 0.828373 0.009876
vt 0.828373 0.086095
vt 0.006639 0.009876
vt 0.006639 0.086095
vt 0.170986 0.009876
vt 0.170985 0.086095
vt 0.335333 0.086095
vt 0.335332 0.009876
vt 0.499679 0.009876
vt 0.499679 0.086095
vt 0.664026 0.009876
vt 0.664026 0.086095
vt 0.499679 0.533026
vt 0.335333 0.533026
vt 0.170985 0.533026
vt 0.006639 0.533026
vt 0.828373 0.533026
vt 0.664026 0.533026
vt 0.828373 0.625821
vt 0.006639 0.625821
vt 0.170986 0.625821
vt 0.335332 0.625821
vt 0.499679 0.625821
vt 0.664026 0.625821
vt 0.828373 0.658426
vt 0.006639 0.658426
vt 0.170985 0.658426
vt 0.335333 0.658426
vt 0.499679 0.658426
vt 0.664026 0.658426
vt 0.828373 0.688432
vt 0.006639 0.688432
vt 0.170985 0.688432
vt 0.335333 0.688432
vt 0.499679 0.688432
vt 0.664026 0.688432
vt 0.992719 0.009876
vt 0.992719 0.086095
vt 0.992719 0.533026
vt 0.992719 0.625821
vt 0.992719 0.658426
vt 0.992719 0.688432
vt 0.601959 0.728162
vt 0.672859 0.850965
vt 0.601959 0.973767
vt 0.460159 0.973767
vt 0.460159 0.728162
vt 0.389259 0.850965
vn 0.000000 -0.040693 -0.999172
vn 0.865309 -0.040693 -0.499585
vn 0.824144 -0.307222 -0.475817
vn 0.000000 -0.307223 -0.951637
vn -0.865309 -0.040693 -0.499585
vn 0.000000 -0.040693 -0.999172
vn 0.000000 -0.307223 -0.951637
vn -0.824144 -0.307222 -0.475817
vn -0.865309 -0.040693 0.499585
vn -0.865309 -0.040693 -0.499585
vn -0.824144 -0.307222 -0.475817
vn -0.824144 -0.307222 0.475817
vn 0.000000 -0.040693 0.999172
vn -0.865309 -0.040693 0.499585
vn -0.824144 -0.307222 0.475817
vn 0.000000 -0.307223 0.951637
vn 0.865309 -0.040693 0.499585
vn 0.000000 -0.040693 0.999172
vn 0.000000 -0.307223 0.951637
vn 0.824144 -0.307222 0.475817
vn 0.865309 -0.040693 0.499585
vn 0.824144 -0.307222 0.475817
vn 0.824144 -0.307222 -0.475817
vn 0.865309 -0.040693 -0.499585
vn 0.000000 0.040217 0.999191
vn -0.865325 0.040217 0.499595
vn -0.865309 -0.040693 0.499585
vn 0.000000 -0.040693 0.999172
vn -0.865325 0.040217 -0.499595
vn -0.000000 0.040217 -0.999191
vn 0.000000 -0.040693 -0.999172
vn -0.865309 -0.040693 -0.499585
vn -0.000000 0.040217 -0.999191
vn 0.865325 0.040217 -0.499595
vn 0.865309 -0.040693 -0.499585
vn 0.000000 -0.040693 -0.999172
vn 0.865325 0.040217 0.499595
vn 0.865309 -0.040693 0.499585
vn 0.865309 -0.040693 -0.499585
vn 0.865325 0.040217 -0.499595
vn 0.865325 0.040217 0.499595
vn 0.000000 0.040217 0.999191
vn 0.000000 -0.040693 0.999172
vn 0.865309 -0.040693 0.499585
vn 0.862902 0.084870 -0.498194
vn 0.865325 0.040217 -0.499595
vn -0.000000 0.040217 -0.999191
vn 0.000000 0.084870 -0.996392
vn 0.000000 0.084870 -0.996392
vn -0.000000 0.040217 -0.999191
vn -0.865325 0.040217 -0.499595
vn -0.862902 0.084870 -0.498194
vn -0.862902 0.084870 0.498194
vn -0.862902 0.084870 -0.498194
vn -0.865325 0.040217 -0.499595
vn -0.865325 0.040217 0.499595
vn -0.862902 0.084870 0.498194
vn -0.865325 0.040217 0.499595
vn 0.000000 0.040217 0.999191
vn -0.000000 0.084870 0.996392
vn -0.000000 0.084870 0.996392
vn 0.000000 0.040217 0.999191
vn 0.865325 0.040217 0.499595
vn 0.862902 0.084870 0.498194
vn 0.862902 0.084870 0.498194
vn 0.865325 0.040217 0.499595
vn 0.865325 0.040217 -0.499595
vn 0.862902 0.084870 -0.498194
vn 0.293179 0.940948 -0.169301
vn 0.862902 0.084870 -0.498194
vn 0.000000 0.084870 -0.996392
vn 0.000000 0.940936 -0.338585
vn 0.000000 0.940936 -0.338585
vn 0.000000 0.084870 -0.996392
vn -0.862902 0.084870 -0.498194
vn -0.293179 0.940948 -0.169300
vn -0.293180 0.940948 0.169301
vn -0.293179 0.940948 -0.169300
vn -0.862902 0.084870 -0.498194
vn -0.862902 0.084870 0.498194
vn -0.293180 0.940948 0.169301
vn -0.862902 0.084870 0.498194
vn -0.000000 0.084870 0.996392
vn -0.000000 0.940936 0.338585
vn -0.000000 0.940936 0.338585
vn -0.000000 0.084870 0.996392
vn 0.862902 0.084870 0.498194
vn 0.293178 0.940948 0.169300
vn 0.293178 0.940948 0.169300
vn 0.862902 0.084870 0.498194
vn 0.862902 0.084870 -0.498194
vn 0.293179 0.940948 -0.169301
vn -0.646690 0.665124 0.373366
vn 0.293179 0.940948 -0.169301
vn 0.000000 0.940936 -0.338585
vn -0.000000 0.665126 0.746731
vn -0.000000 0.665126 0.746731
vn 0.000000 0.940936 -0.338585
vn -0.293179 0.940948 -0.169300
vn 0.646690 0.665124 0.373366
vn 0.646690 0.665124 -0.373366
vn 0.646690 0.665124 0.373366
vn -0.293179 0.940948 -0.169300
vn -0.293180 0.940948 0.169301
vn 0.646690 0.665124 -0.373366
vn -0.293180 0.940948 0.169301
vn -0.000000 0.940936 0.338585
vn 0.000000 0.665126 -0.746731
vn 0.000000 0.665126 -0.746731
vn -0.000000 0.940936 0.338585
vn 0.293178 0.940948 0.169300
vn -0.646690 0.665124 -0.373366
vn -0.646690 0.665124 -0.373366
vn 0.293178 0.940948 0.169300
vn 0.293179 0.940948 -0.169301
vn -0.646690 0.665124 0.373366
vn -0.865325 0.040217 0.499595
vn -0.865325 0.040217 -0.499595
vn -0.865309 -0.040693 -0.499585
vn -0.865309 -0.040693 0.499585
vn 0.000000 -1.000000 0.000000
vn 0.000000 -1.000000 0.000000
vn 0.000000 -1.000000 0.000000
vn 0.000000 -1.000000 0.000000
vn 0.000000 1.000000 0.000000
vn 0.000000 1.000000 0.000000
vn 0.000000 1.000000 0.000000
vn 0.000000 1.000000 0.000000
vn 0.000000 -1.000000 0.000000
vn 0.000000 -1.000000 0.000000
vn 0.000000 -1.000000 0.000000
vn 0.000000 -1.000000 0.000000
vn 0.000000 1.000000 0.000000
vn 0.000000 1.000000 0.000000
vn 0.000000 1.000000 0.000000
vn 0.000000 1.000000 0.000000
s off
g Gen_const_barrels_02_lod2_001
usemtl blinn1SG
f 16/44/1 17/8/2 1/7/3 2/43/4
f 15/12/5 16/10/6 2/9/7 3/11/8
f 14/13/9 15/12/10 3/11/11 4/14/12
f 13/16/13 14/13/14 4/14/15 5/15/16
f 18/18/17 13/16/18 5/15/19 6/17/20
f 18/18/21 6/17/22 1/7/23 17/8/24
f 7/19/25 8/20/26 14/13/27 13/16/28
f 9/21/29 10/22/30 16/10/31 15/12/32
f 10/45/33 11/23/34 17/8/35 16/44/36
f 12/24/37 18/18/38 17/8/39 11/23/40
f 12/24/41 7/19/42 13/16/43 18/18/44
f 19/25/45 11/23/46 10/45/47 20/46/48
f 20/26/49 10/22/50 9/21/51 21/27/52
f 22/28/53 21/27/54 9/21/55 8/20/56
f 22/28/57 8/20/58 7/19/59 23/29/60
f 23/29/61 7/19/62 12/24/63 24/30/64
f 24/30/65 12/24/66 11/23/67 19/25/68
f 25/31/69 19/25/70 20/46/71 26/47/72
f 26/32/73 20/26/74 21/27/75 27/33/76
f 28/34/77 27/33/78 21/27/79 22/28/80
f 28/34/81 22/28/82 23/29/83 29/35/84
f 29/35/85 23/29/86 24/30/87 30/36/88
f 30/36/89 24/30/90 19/25/91 25/31/92
f 31/37/93 25/31/94 26/47/95 32/48/96
f 32/38/97 26/32/98 27/33/99 33/39/100
f 34/40/101 33/39/102 27/33/103 28/34/104
f 34/40/105 28/34/106 29/35/107 35/41/108
f 35/41/109 29/35/110 30/36/111 36/42/112
f 36/42/113 30/36/114 25/31/115 31/37/116
f 8/20/117 9/21/118 15/12/119 14/13/120
f 5/5/121 2/2/122 1/1/123 6/6/124
f 31/49/125 32/50/126 35/54/127 36/53/128
f 4/4/129 3/3/130 2/2/131 5/5/132
f 35/54/133 32/50/134 33/51/135 34/52/136
