# This file uses centimeters as units for non-parametric coordinates.

mtllib const_bollard_02_lod2.mtl
g default
v -0.000001 0.124944 -0.071142
v -0.071145 0.124944 0.000008
v -0.000001 0.124944 0.071142
v 0.071143 0.124944 0.000008
v -0.000001 1.214059 -0.039129
v -0.039121 1.214059 0.000008
v -0.000001 1.214059 0.039116
v 0.039119 1.214059 0.000008
v 0.044265 0.124944 0.000008
v -0.000001 0.124944 0.044275
v -0.044266 0.124944 0.000008
v -0.000001 0.124944 -0.044275
v 0.044265 0.076048 0.000008
v -0.000001 0.076048 0.044275
v -0.044266 0.076048 0.000008
v -0.000001 0.076048 -0.044275
v 0.180214 -0.000431 0.000008
v -0.000001 -0.000431 0.180200
v -0.180210 -0.000431 0.000008
v -0.000001 -0.000431 -0.180212
v -0.000001 1.050765 0.071142
v -0.071145 1.050765 0.000008
v -0.000001 1.050765 -0.071142
v 0.071143 1.050765 0.000008
v -0.000001 1.050765 0.078074
v -0.000001 1.214059 0.078074
v -0.078080 1.050765 0.000008
v -0.078080 1.214059 0.000008
v -0.000001 1.050765 -0.078074
v -0.000001 1.214059 -0.078074
v 0.078082 1.050765 0.000008
v 0.078082 1.214059 0.000008
v -0.000001 1.234240 -0.039129
v -0.039121 1.234240 0.000008
v -0.000001 1.234240 0.039116
v 0.039119 1.234240 0.000008
v 0.025607 1.234240 -0.008462
v -0.000001 1.234240 -0.008584
v -0.025605 1.234240 -0.008462
v -0.025605 1.234240 0.008445
v -0.000001 1.234240 0.008614
v 0.025607 1.234240 0.008445
v -0.000001 1.351073 -0.008567
v -0.027409 1.335797 -0.008462
v -0.027409 1.335797 0.008432
v -0.000001 1.351073 0.008594
v 0.027411 1.335797 0.008432
v 0.027411 1.335797 -0.008462
v -0.000001 1.243509 0.008566
v -0.000001 1.243509 -0.008552
v -0.018456 1.256273 0.008490
v 0.018458 1.256273 0.008490
v -0.000001 1.332594 0.008537
v -0.018456 1.322772 0.008490
v 0.018458 1.322772 0.008490
v -0.018456 1.256273 -0.008495
v 0.018458 1.256273 -0.008495
v -0.018456 1.322772 -0.008495
v -0.000001 1.332594 -0.008538
v 0.018458 1.322772 -0.008495
v -0.000001 0.055937 0.000008
vt 0.414577 0.071387
vt 0.414577 0.842523
vt 0.558934 0.071387
vt 0.558934 0.842523
vt 0.847648 0.071387
vt 0.847648 0.842523
vt 0.847648 0.049432
vt 0.703291 0.071387
vt 0.703291 0.049432
vt 0.558934 0.049432
vt 0.414577 0.049432
vt 0.847648 0.008706
vt 0.703291 0.008706
vt 0.558934 0.008706
vt 0.414577 0.008706
vt 0.703291 0.857220
vt 0.703291 0.993231
vt 0.558934 0.857220
vt 0.558934 0.993231
vt 0.414577 0.857220
vt 0.414577 0.993231
vt 0.847648 0.857220
vt 0.847648 0.993231
vt 0.703291 0.842523
vt 0.992004 0.071387
vt 0.992004 0.049432
vt 0.992004 0.008706
vt 0.992004 0.993231
vt 0.992004 0.842523
vt 0.992004 0.857220
vt 0.010333 0.703506
vt 0.306710 0.449953
vt 0.010333 0.738134
vt 0.306736 0.342797
vt 0.189709 0.752107
vt 0.187099 0.945896
vt 0.163829 0.967481
vt 0.292669 0.752108
vt 0.328126 0.751314
vt 0.318607 0.967470
vt 0.295219 0.945894
vt 0.096400 0.899145
vt 0.119690 0.916422
vt 0.092500 0.806915
vt 0.116907 0.790383
vt 0.086222 0.800311
vt 0.086212 0.769634
vt 0.075934 0.898771
vt 0.052717 0.916350
vt 0.079852 0.807305
vt 0.055515 0.790440
vt 0.292012 0.540759
vt 0.292013 0.491050
vt 0.341925 0.590672
vt 0.391633 0.590672
vt 0.242100 0.590672
vt 0.192392 0.590672
vt 0.292012 0.640584
vt 0.292012 0.690293
vt 0.360279 0.396391
vt 0.318465 0.396378
vt 0.318327 0.361311
vt 0.318311 0.431445
vt 0.295154 0.361304
vt 0.295138 0.431439
vt 0.253155 0.396358
vt 0.294940 0.396372
vt 0.241027 0.991001
vt 0.241041 0.962374
vt 0.086219 0.905553
vt 0.086218 0.933990
vt 0.074170 0.703506
vt 0.074170 0.738134
vt 0.086218 0.751639
vt 0.133879 0.751639
vt 0.038558 0.751639
vt 0.137238 0.940667
vt 0.086218 0.969100
vt 0.035199 0.940667
vt 0.241041 0.752092
vt 0.241041 0.769344
vt 0.206687 0.793101
vt 0.275396 0.793101
vt 0.206687 0.916875
vt 0.275396 0.916875
vt 0.241041 0.935157
vt 0.211421 0.171127
vt 0.337484 0.171126
vt 0.176950 0.205596
vt 0.176950 0.136657
vt 0.176952 0.331659
vt 0.176952 0.010594
vt 0.142483 0.171127
vt 0.016420 0.171126
vt 0.222544 0.438210
vt 0.116905 0.438165
vt 0.116948 0.332802
vt 0.116951 0.543671
vt 0.011407 0.438211
vt 0.138007 0.703506
vt 0.138007 0.738134
vt 0.201844 0.703506
vt 0.201844 0.738134
vt 0.265681 0.703506
vt 0.265681 0.738134
vn 0.000000 0.000000 -1.000000
vn 0.000000 0.000000 -1.000000
vn -1.000000 0.000000 0.000000
vn -1.000000 0.000000 0.000000
vn -1.000000 0.000000 0.000000
vn -1.000000 0.000000 0.000000
vn 0.000000 0.000000 1.000000
vn 0.000000 0.000000 1.000000
vn 0.000000 0.000000 -1.000000
vn 1.000000 0.000000 0.000000
vn 1.000000 0.000000 0.000000
vn 0.000000 0.000000 -1.000000
vn 0.000000 -1.000000 0.000000
vn 0.000000 -1.000000 0.000000
vn 0.000000 -1.000000 0.000000
vn 0.000000 -1.000000 0.000000
vn 0.000000 -1.000000 -0.000000
vn 0.000000 -1.000000 -0.000000
vn 0.000000 -1.000000 -0.000000
vn 0.000000 -1.000000 -0.000000
vn 0.000000 -1.000000 0.000000
vn 0.000000 -1.000000 0.000000
vn 0.000000 -1.000000 0.000000
vn 0.000000 -1.000000 0.000000
vn 0.000000 -1.000000 0.000000
vn 0.000000 -1.000000 0.000000
vn 0.000000 -1.000000 0.000000
vn 0.000000 -1.000000 0.000000
vn -0.552161 0.833738 0.000000
vn 0.000000 0.833738 0.552161
vn 0.000000 0.000000 1.000000
vn -1.000000 0.000000 0.000000
vn 0.000000 0.833738 -0.552161
vn -0.552161 0.833738 0.000000
vn -1.000000 0.000000 0.000000
vn 0.000000 0.000000 -1.000000
vn 0.000000 0.833738 -0.552161
vn 0.000000 0.000000 -1.000000
vn 1.000000 0.000000 0.000000
vn 0.552161 0.833738 0.000000
vn 0.552161 0.833738 0.000000
vn 0.000000 0.833738 0.552161
vn 0.000000 0.099889 0.994999
vn 0.994999 0.099889 -0.000000
vn 0.000000 0.833738 0.552161
vn -0.552161 0.833738 0.000000
vn -0.994999 0.099889 0.000000
vn 0.000000 0.099889 0.994999
vn -0.552161 0.833738 0.000000
vn 0.000000 0.833738 -0.552161
vn 0.000000 0.099889 -0.994999
vn -0.994999 0.099889 0.000000
vn 0.000000 0.833738 -0.552161
vn 0.552161 0.833738 0.000000
vn 0.994999 0.099889 -0.000000
vn 0.000000 0.099889 -0.994999
vn 0.000000 0.000000 1.000000
vn 0.000000 0.000000 1.000000
vn 1.000000 0.000000 0.000000
vn 1.000000 0.000000 0.000000
vn -1.000000 0.000000 0.000000
vn -1.000000 0.000000 0.000000
vn 0.000000 0.000000 1.000000
vn 0.000000 0.000000 1.000000
vn 0.000000 0.000000 -1.000000
vn 0.000000 0.000000 -1.000000
vn -1.000000 0.000000 0.000000
vn -1.000000 0.000000 0.000000
vn 0.000000 0.000000 -1.000000
vn 1.000000 0.000000 0.000000
vn 1.000000 0.000000 0.000000
vn 0.000000 0.000000 -1.000000
vn 0.000000 -1.000000 0.000000
vn 0.000000 -1.000000 0.000000
vn 0.000000 -1.000000 0.000000
vn 0.000000 -1.000000 0.000000
vn 0.000000 1.000000 0.000000
vn 0.000000 1.000000 0.000000
vn 0.000000 1.000000 0.000000
vn 0.000000 1.000000 0.000000
vn 0.000000 -1.000000 0.000000
vn 0.000000 -1.000000 0.000000
vn 0.000000 -1.000000 0.000000
vn 0.000000 -1.000000 0.000000
vn 0.000000 1.000000 0.000000
vn 0.000000 1.000000 0.000000
vn 0.000000 1.000000 0.000000
vn 0.000000 1.000000 0.000000
vn 0.000000 -1.000000 0.000000
vn 0.000000 -1.000000 0.000000
vn 0.000000 -1.000000 0.000000
vn 0.000000 -1.000000 0.000000
vn 0.000000 1.000000 0.000000
vn 0.000000 1.000000 0.000000
vn 0.000000 1.000000 0.000000
vn 0.000000 1.000000 0.000000
vn 0.000000 -1.000000 0.000000
vn 0.000000 -1.000000 0.000000
vn 0.000000 -1.000000 0.000000
vn 0.000000 -1.000000 0.000000
vn 0.000000 1.000000 0.000000
vn 0.000000 1.000000 0.000000
vn 0.000000 1.000000 0.000000
vn 0.000000 1.000000 0.000000
vn 0.000000 0.000000 -1.000000
vn 0.000000 0.000000 -1.000000
vn -1.000000 0.000000 0.000000
vn -1.000000 0.000000 0.000000
vn -1.000000 0.000000 0.000000
vn -1.000000 0.000000 0.000000
vn 0.000000 0.000000 1.000000
vn 0.000000 0.000000 1.000000
vn 0.000000 0.000000 1.000000
vn 0.000000 0.000000 1.000000
vn 1.000000 0.000000 0.000000
vn 1.000000 0.000000 0.000000
vn 0.000000 0.000000 -1.000000
vn 1.000000 0.000000 0.000000
vn 1.000000 0.000000 0.000000
vn 0.000000 0.000000 -1.000000
vn 0.000000 1.000000 0.000000
vn 0.000000 1.000000 0.000000
vn 0.000000 1.000000 0.000000
vn 0.000000 1.000000 0.000000
vn 0.000000 1.000000 0.000000
vn 0.000000 1.000000 0.000000
vn 0.000000 1.000000 0.000000
vn 0.000000 1.000000 0.000000
vn -0.976430 0.215836 0.000000
vn -0.976399 0.215974 0.000000
vn -0.976430 0.215836 0.000000
vn -0.999842 -0.017763 0.000000
vn -0.999842 -0.017763 0.000000
vn -0.976399 0.215974 0.000000
vn 0.976399 0.215974 0.000000
vn 0.999842 -0.017763 0.000000
vn 0.999842 -0.017763 0.000000
vn 0.976430 0.215836 0.000000
vn 0.976399 0.215974 0.000000
vn 0.976430 0.215836 0.000000
vn 0.000000 1.000000 0.000000
vn 0.000000 1.000000 0.000000
vn -0.004795 0.001620 0.999987
vn -0.004795 0.001620 0.999987
vn -0.004795 0.001620 0.999987
vn -0.004795 0.001620 0.999987
vn -0.003795 -0.001079 0.999992
vn -0.003795 -0.001079 0.999992
vn -0.003795 -0.001079 0.999992
vn -0.003795 -0.001079 0.999992
vn -0.005063 0.000049 0.999987
vn -0.005063 0.000049 0.999987
vn -0.005063 0.000049 0.999987
vn -0.005063 0.000049 0.999987
vn 0.003795 -0.001079 0.999992
vn 0.003795 -0.001079 0.999992
vn 0.003795 -0.001079 0.999992
vn 0.003795 -0.001079 0.999992
vn 0.003638 0.001191 -0.999993
vn 0.003638 0.001191 -0.999993
vn 0.003638 0.001191 -0.999993
vn 0.003638 0.001191 -0.999993
vn -0.002866 -0.000814 -0.999996
vn -0.002866 -0.000814 -0.999996
vn -0.002866 -0.000814 -0.999996
vn -0.002866 -0.000814 -0.999996
vn 0.002866 -0.000814 -0.999996
vn 0.002866 -0.000814 -0.999996
vn 0.002866 -0.000814 -0.999996
vn 0.002866 -0.000814 -0.999996
vn 0.003842 0.000032 -0.999993
vn 0.003842 0.000032 -0.999993
vn 0.003842 0.000032 -0.999993
vn 0.003842 0.000032 -0.999993
vn 0.000000 0.000000 1.000000
vn 0.000000 0.000000 1.000000
vn 1.000000 0.000000 0.000000
vn 1.000000 0.000000 0.000000
vn 0.000000 -1.000000 0.000000
vn 0.971783 -0.235877 0.000000
vn 0.971801 -0.235805 0.000000
vn 0.000000 -1.000000 0.000000
vn -0.971783 -0.235877 0.000000
vn 0.000000 -1.000000 0.000000
vn 0.000000 -1.000000 0.000000
vn -0.971801 -0.235805 0.000000
vn 0.971801 -0.235805 0.000000
vn 0.971783 -0.235877 0.000000
vn 0.973687 0.227891 0.000000
vn 0.973709 0.227796 0.000000
vn 0.973687 0.227891 0.000000
vn 0.000000 1.000000 0.000000
vn 0.000000 1.000000 0.000000
vn 0.973709 0.227796 0.000000
vn 0.000000 1.000000 0.000000
vn -0.973687 0.227891 0.000000
vn -0.973709 0.227796 0.000000
vn 0.000000 1.000000 0.000000
vn -0.971801 -0.235805 0.000000
vn -0.973709 0.227796 0.000000
vn -0.973687 0.227891 0.000000
vn -0.971783 -0.235877 0.000000
vn 0.000000 0.000000 1.000000
vn 0.000000 0.833738 0.552161
vn 0.552161 0.833738 0.000000
vn 1.000000 0.000000 0.000000
vn 0.994999 0.099889 -0.000000
vn 0.000000 0.099889 0.994999
vn 0.000000 -1.000000 0.000000
vn 0.000000 0.099889 0.994999
vn -0.994999 0.099889 0.000000
vn 0.000000 -1.000000 0.000000
vn -0.994999 0.099889 0.000000
vn 0.000000 0.099889 -0.994999
vn 0.000000 -1.000000 0.000000
vn 0.000000 0.099889 -0.994999
vn 0.994999 0.099889 -0.000000
vn 0.000000 -1.000000 0.000000
vn -0.003842 0.000032 -0.999993
vn -0.003842 0.000032 -0.999993
vn -0.003842 0.000032 -0.999993
vn -0.003842 0.000032 -0.999993
vn 0.005063 0.000049 0.999987
vn 0.005063 0.000049 0.999987
vn 0.005063 0.000049 0.999987
vn 0.005063 0.000049 0.999987
vn -0.003638 0.001191 -0.999993
vn -0.003638 0.001191 -0.999993
vn -0.003638 0.001191 -0.999993
vn -0.003638 0.001191 -0.999993
vn 0.004795 0.001620 0.999987
vn 0.004795 0.001620 0.999987
vn 0.004795 0.001620 0.999987
vn 0.004795 0.001620 0.999987
vn 0.000000 1.000000 0.000000
vn 0.000000 1.000000 0.000000
vn 0.000000 1.000000 0.000000
vn 0.000000 1.000000 0.000000
vn 0.000000 1.000000 0.000000
vn 0.000000 1.000000 0.000000
vn 0.000000 1.000000 0.000000
vn 0.000000 1.000000 0.000000
vn 0.000000 1.000000 0.000000
vn 0.000000 1.000000 0.000000
vn 0.000000 1.000000 0.000000
vn 0.000000 1.000000 0.000000
vn 0.000000 1.000000 0.000000
vn 0.000000 1.000000 0.000000
vn 0.000000 1.000000 0.000000
vn 0.000000 1.000000 -0.000011
vn 0.000000 1.000000 -0.000011
vn 0.000000 1.000000 -0.000011
vn 0.000000 1.000000 0.000000
vn 0.000000 1.000000 0.000000
vn 0.000000 1.000000 0.000000
vn 0.000000 1.000000 0.000011
vn 0.000000 1.000000 0.000011
vn 0.000000 1.000000 0.000011
s off
g Gen_const_bollard_02_lod2_001
usemtl blinn13SG
f 23/2/1 1/1/2 2/3/3 22/4/4
f 22/4/5 2/3/6 3/8/7 21/24/8
f 23/29/9 24/6/10 4/5/11 1/25/12
f 10/9/13 9/7/14 4/5/15 3/8/16
f 11/10/17 10/9/18 3/8/19 2/3/20
f 12/11/21 11/10/22 2/3/23 1/1/24
f 12/26/25 1/25/26 4/5/27 9/7/28
f 15/14/29 14/13/30 10/9/31 11/10/32
f 16/15/33 15/14/34 11/10/35 12/11/36
f 16/27/37 12/26/38 9/7/39 13/12/40
f 13/87/41 14/90/42 18/92/43 17/88/44
f 14/90/45 15/93/46 19/94/47 18/92/48
f 15/93/49 16/89/50 20/91/51 19/94/52
f 16/89/53 13/87/54 17/88/55 20/91/56
f 26/17/57 25/16/58 31/22/59 32/23/60
f 28/19/61 27/18/62 25/16/63 26/17/64
f 30/21/65 29/20/66 27/18/67 28/19/68
f 30/28/69 32/23/70 31/22/71 29/30/72
f 25/16/73 21/24/74 24/6/75 31/22/76
f 28/57/77 26/53/78 7/52/79 6/56/80
f 27/18/81 22/4/82 21/24/83 25/16/84
f 30/59/85 28/57/86 6/56/87 5/58/88
f 29/20/89 23/2/90 22/4/91 27/18/92
f 30/59/93 5/58/94 8/54/95 32/55/96
f 29/30/97 31/22/98 24/6/99 23/29/100
f 26/53/101 32/55/102 8/54/103 7/52/104
f 33/33/105 5/31/106 6/72/107 34/73/108
f 34/73/109 6/72/110 7/100/111 35/101/112
f 35/101/113 7/100/114 8/102/115 36/103/116
f 33/105/117 36/103/118 8/102/119 5/104/120
f 39/63/121 34/32/122 40/65/123
f 42/64/124 36/34/125 37/62/126
f 46/69/127 43/68/128 44/37/129 45/36/130
f 44/37/131 39/75/132 40/35/133 45/36/134
f 47/41/135 42/38/136 37/39/137 48/40/138
f 47/41/139 48/40/140 43/68/141 46/69/142
f 51/82/143 40/35/144 41/80/145 49/81/146
f 46/69/147 45/36/148 54/84/149 53/86/150
f 54/84/151 45/36/152 40/35/153 51/82/154
f 47/41/155 46/69/156 53/86/157 55/85/158
f 57/51/159 37/76/160 38/74/161 50/47/162
f 44/77/163 43/78/164 59/71/165 58/43/166
f 43/78/167 48/79/168 60/49/169 59/71/170
f 60/49/171 48/79/172 37/76/173 57/51/174
f 21/24/175 3/8/176 4/5/177 24/6/178
f 53/70/179 54/42/180 58/43/181 59/71/182
f 55/48/183 53/70/184 59/71/185 60/49/186
f 58/43/187 54/42/188 51/44/189 56/45/190
f 51/44/191 49/46/192 50/47/193 56/45/194
f 49/46/195 52/50/196 57/51/197 50/47/198
f 60/49/199 57/51/200 52/50/201 55/48/202
f 10/9/203 14/13/204 13/12/205 9/7/206
f 17/95/207 18/98/208 61/96/209
f 18/98/210 19/99/211 61/96/212
f 19/99/213 20/97/214 61/96/215
f 20/97/216 17/95/217 61/96/218
f 58/43/219 56/45/220 39/75/221 44/77/222
f 55/85/223 52/83/224 42/38/225 47/41/226
f 56/45/227 50/47/228 38/74/229 39/75/230
f 52/83/231 49/81/232 41/80/233 42/38/234
f 39/63/235 38/61/236 33/60/237
f 40/65/238 35/66/239 41/67/240
f 42/64/241 41/67/242 35/66/243
f 37/62/244 33/60/245 38/61/246
f 40/65/247 34/32/248 35/66/249
f 42/64/250 35/66/251 36/34/252
f 37/62/253 36/34/254 33/60/255
f 39/63/256 33/60/257 34/32/258
