# This file uses centimeters as units for non-parametric coordinates.

mtllib const_barricade_07_lod.mtl
g default
v -0.955402 0.000130 0.229339
v 0.955402 0.000130 0.229339
v -0.953053 0.924420 0.146085
v 0.953053 0.924420 0.146085
v -0.953053 0.924420 -0.146077
v 0.953053 0.924420 -0.146077
v -0.955402 0.000130 -0.229330
v 0.955402 0.000130 -0.229330
v 0.955402 0.118975 0.229339
v -0.955402 0.118975 0.229339
v -0.955402 0.118975 -0.229330
v 0.955402 0.118975 -0.229330
v 0.953053 0.224830 0.184140
v -0.953053 0.224830 0.184140
v -0.953053 0.224830 -0.184131
v 0.953053 0.224830 -0.184131
vt 0.052151 0.996606
vt 0.052151 0.806160
vt 0.101574 0.806160
vt 0.101574 0.996606
vt 0.145723 0.977810
vt 0.436658 0.840484
vt 0.436658 0.961984
vt 0.942412 0.798718
vt 0.942418 0.996903
vt 0.892995 0.996905
vt 0.558037 0.962293
vt 0.558033 0.840793
vt 0.436532 0.798718
vt 0.558032 0.798718
vt 0.436531 0.004078
vt 0.558032 0.004078
vt 0.052151 0.798718
vt 0.101574 0.798718
vt 0.052151 0.004079
vt 0.101574 0.004079
vt 0.145596 0.798718
vt 0.145596 0.004078
vt 0.848967 0.798718
vt 0.892989 0.004078
vt 0.942412 0.004078
vt 0.848967 0.004078
vt 0.145723 0.824659
vt 0.848973 0.978110
vt 0.848968 0.824959
vt 0.892989 0.806160
vt 0.892989 0.798719
vt 0.942412 0.806159
vn 0.000000 0.195766 0.980651
vn 0.000000 0.195766 0.980651
vn 0.000000 0.000000 1.000000
vn 0.000000 0.000000 1.000000
vn 0.000000 1.000000 0.000000
vn 0.000000 1.000000 0.000000
vn 0.000000 1.000000 0.000000
vn 0.000000 1.000000 0.000000
vn 0.000000 0.000000 -1.000000
vn 0.000000 0.000000 -1.000000
vn 0.000000 0.195766 -0.980651
vn 0.000000 0.195766 -0.980651
vn 1.000000 0.000000 0.000000
vn 1.000000 0.000000 0.000000
vn 0.999966 0.008303 0.000000
vn 0.999966 0.008303 0.000000
vn -1.000000 0.000000 0.000000
vn -1.000000 0.000000 0.000000
vn -0.999966 0.008303 0.000000
vn -0.999966 0.008303 0.000000
vn 0.000000 0.103411 0.994639
vn 0.000000 0.103411 0.994639
vn 0.000000 0.195766 0.980651
vn 0.000000 0.195766 0.980651
vn -0.999966 0.008303 0.000000
vn -0.999966 0.008303 0.000000
vn -0.999990 0.004396 0.000000
vn -0.999990 0.004396 0.000000
vn 0.000000 0.195766 -0.980651
vn 0.000000 0.103411 -0.994639
vn 0.000000 0.103411 -0.994639
vn 0.000000 0.195766 -0.980651
vn 0.999966 0.008303 0.000000
vn 0.999966 0.008303 0.000000
vn 0.999990 0.004396 0.000000
vn 0.999990 0.004396 0.000000
vn 0.000000 0.054315 0.998524
vn 0.000000 0.103411 0.994639
vn 0.000000 0.103411 0.994639
vn 0.000000 0.054315 0.998524
vn -0.999990 0.004396 0.000000
vn -0.999990 0.004396 0.000000
vn -1.000000 0.000000 0.000000
vn -1.000000 0.000000 0.000000
vn 0.000000 0.103411 -0.994639
vn 0.000000 0.054315 -0.998524
vn 0.000000 0.054315 -0.998524
vn 0.000000 0.103411 -0.994639
vn 0.999990 0.004396 0.000000
vn 0.999990 0.004396 0.000000
vn 1.000000 0.000000 0.000000
vn 1.000000 0.000000 0.000000
s off
g Gen_const_barricade_07_lod_001
usemtl blinn8SG
f 9/20/1 10/18/2 1/17/3 2/19/4
f 5/14/5 3/13/6 4/15/7 6/16/8
f 8/25/9 7/8/10 11/31/11 12/24/12
f 2/1/13 8/2/14 12/3/15 9/4/16
f 7/32/17 1/9/18 10/10/19 11/30/20
f 13/22/21 14/21/22 10/18/23 9/20/24
f 11/30/25 10/10/26 14/28/27 15/29/28
f 11/31/29 15/23/30 16/26/31 12/24/32
f 9/4/33 12/3/34 16/27/35 13/5/36
f 3/13/37 14/21/38 13/22/39 4/15/40
f 15/29/41 14/28/42 3/11/43 5/12/44
f 15/23/45 5/14/46 6/16/47 16/26/48
f 13/5/49 16/27/50 6/6/51 4/7/52
