# This file uses centimeters as units for non-parametric coordinates.

mtllib const_bollard_01_lod.mtl
g default
v -0.002011 0.005864 0.096152
v -0.069703 0.005864 0.067986
v -0.097741 0.005864 0.000008
v -0.069703 0.005864 -0.067987
v -0.002011 0.005864 -0.096152
v 0.065684 0.005864 -0.067987
v 0.093723 0.005864 0.000008
v 0.065684 0.005864 0.067986
v -0.002011 1.080938 0.096779
v 0.066116 1.080944 0.068430
v 0.094326 1.080950 0.000010
v 0.066116 1.080944 -0.068399
v -0.002011 1.080938 -0.096764
v -0.070137 1.080944 -0.068399
v -0.098343 1.080950 0.000010
v -0.070137 1.080944 0.068430
v -0.002011 1.124129 0.000008
v -0.002011 1.102581 0.071570
v -0.052346 1.102630 0.050543
v -0.073117 1.102680 0.000008
v -0.052346 1.102630 -0.050543
v -0.002011 1.102581 -0.071570
v 0.048324 1.102630 -0.050543
v 0.069099 1.102680 0.000008
v 0.048324 1.102630 0.050543
vt 0.158925 0.013931
vt 0.234072 0.013880
vt 0.309218 0.988088
vt 0.309218 0.013830
vt 0.461255 0.013632
vt 0.536881 0.013484
vt 0.609155 0.988088
vt 0.609155 0.013335
vt 0.158925 0.988088
vt 0.084103 0.988088
vt 0.084103 0.013931
vt 0.009281 0.988088
vt 0.009281 0.013931
vt 0.384040 0.988088
vt 0.384040 0.013731
vt 0.461255 0.988088
vt 0.235029 0.988088
vt 0.536881 0.988088
vt 0.735127 0.716004
vt 0.815752 0.682334
vt 0.815792 0.797071
vt 0.815775 0.631313
vt 0.699068 0.679845
vt 0.896447 0.715972
vt 0.701787 0.797101
vt 0.932490 0.679829
vt 0.650705 0.797086
vt 0.929774 0.797068
vt 0.735164 0.878172
vt 0.980891 0.797036
vt 0.699094 0.914305
vt 0.896478 0.878135
vt 0.815787 0.911823
vt 0.932535 0.914250
vt 0.815824 0.962803
vn -0.000000 -0.000584 1.000000
vn 0.708668 -0.000576 0.705542
vn 0.708586 0.015825 0.705447
vn -0.000000 0.015818 0.999875
vn 1.000000 -0.000565 -0.000002
vn 0.999875 0.015833 0.000003
vn 0.708666 -0.000563 -0.705544
vn 0.708589 0.015829 -0.705444
vn -0.000000 -0.000566 -1.000000
vn -0.000000 0.015825 -0.999875
vn -0.708669 -0.000563 -0.705541
vn -0.708592 0.015829 -0.705441
vn -1.000000 -0.000565 -0.000002
vn -0.999875 0.015833 0.000003
vn -0.708671 -0.000576 0.705539
vn -0.708589 0.015825 0.705444
vn -0.372128 0.851115 0.370304
vn -0.000000 0.851426 0.524474
vn -0.000001 1.000000 0.000000
vn -0.525522 0.850780 -0.000025
vn -0.372182 0.851045 -0.370409
vn -0.000000 0.851328 -0.524634
vn 0.372185 0.851044 -0.370408
vn 0.525523 0.850779 -0.000026
vn 0.372130 0.851114 0.370303
s 1
g Gen_const_bollard_01_lod_001
usemtl blinn12SG
f 1/11/1 8/1/2 10/9/3 9/10/4
f 10/9/3 8/1/2 7/2/5 11/17/6
f 7/2/5 6/4/7 12/3/8 11/17/6
f 12/3/8 6/4/7 5/15/9 13/14/10
f 5/15/9 4/5/11 14/16/12 13/14/10
f 14/16/12 4/5/11 3/6/13 15/18/14
f 3/6/13 2/8/15 16/7/16 15/18/14
f 16/12/16 2/13/15 1/11/1 9/10/4
f 19/19/17 18/20/18 17/21/19
f 20/25/20 19/19/17 17/21/19
f 21/29/21 20/25/20 17/21/19
f 22/33/22 21/29/21 17/21/19
f 23/32/23 22/33/22 17/21/19
f 24/28/24 23/32/23 17/21/19
f 25/24/25 24/28/24 17/21/19
f 18/20/18 25/24/25 17/21/19
f 9/22/4 10/26/3 25/24/25 18/20/18
f 19/19/17 16/23/16 9/22/4 18/20/18
f 15/27/14 16/23/16 19/19/17 20/25/20
f 21/29/21 14/31/12 15/27/14 20/25/20
f 13/35/10 14/31/12 21/29/21 22/33/22
f 23/32/23 12/34/8 13/35/10 22/33/22
f 11/30/6 12/34/8 23/32/23 24/28/24
f 25/24/25 10/26/3 11/30/6 24/28/24
