# This file uses centimeters as units for non-parametric coordinates.

mtllib const_barricade_03_lod.mtl
g default
v 0.648398 1.320998 -0.019389
v 0.694732 1.320998 -0.019389
v 0.648398 1.320998 -0.058174
v 0.694732 1.320998 -0.058174
v 0.648398 0.159498 -0.019389
v 0.694732 0.159498 -0.019389
v 0.648398 0.159498 -0.058174
v 0.694732 0.159498 -0.058174
v -0.658063 1.320998 -0.019389
v -0.704396 1.320998 -0.019389
v -0.658063 1.320998 -0.058174
v -0.704396 1.320998 -0.058174
v -0.658063 0.159498 -0.058174
v -0.704396 0.159498 -0.058174
v -0.658063 0.159498 -0.019389
v -0.704396 0.159498 -0.019389
v 0.703852 0.159498 -0.010277
v 0.639281 0.159498 -0.010277
v 0.639281 0.159498 -0.067285
v 0.703852 0.159498 -0.067285
v 0.703852 -0.000000 -0.067285
v 0.639281 -0.000000 -0.067285
v 0.703852 -0.000000 -0.010277
v 0.639281 -0.000000 -0.010277
v -0.713517 0.159498 -0.010277
v -0.648946 0.159498 -0.010277
v -0.648946 0.159498 -0.067285
v -0.713517 0.159498 -0.067285
v -0.648946 -0.000000 -0.010277
v -0.648946 -0.000000 -0.067285
v -0.713517 -0.000000 -0.067285
v -0.713517 -0.000000 -0.010277
v -1.077878 0.286398 0.019385
v 1.077875 0.286398 0.019385
v -1.077878 0.468361 0.019385
v 1.077875 0.468361 0.019385
v -1.077878 0.468361 -0.019389
v 1.077875 0.468361 -0.019389
v -1.077878 0.286398 -0.019389
v 1.077875 0.286398 -0.019389
v -1.077878 0.704098 0.019385
v 1.077875 0.704098 0.019385
v -1.077878 0.886061 0.019385
v 1.077875 0.886061 0.019385
v -1.077878 0.886061 -0.019389
v 1.077875 0.886061 -0.019389
v -1.077878 0.704098 -0.019389
v 1.077875 0.704098 -0.019389
v -1.077878 1.088145 0.019385
v 1.077875 1.088145 0.019385
v -1.077878 1.270108 0.019385
v 1.077875 1.270108 0.019385
v -1.077878 1.270108 -0.019389
v 1.077875 1.270108 -0.019389
v -1.077878 1.088145 -0.019389
v 1.077875 1.088145 -0.019389
v -0.585289 1.563558 0.039942
v -0.585289 1.563558 0.019188
v 0.585287 1.563558 0.039942
v 0.585287 1.563558 0.019188
v -0.585289 0.964362 0.039942
v -0.585289 0.964362 0.019188
v 0.585287 0.964362 0.039942
v 0.585287 0.964362 0.019188
v -0.585289 0.904402 0.039942
v -0.585289 0.904402 0.019188
v 0.585287 0.904402 0.039942
v 0.585287 0.904402 0.019188
v -0.585289 0.543345 0.039942
v -0.585289 0.543345 0.019188
v 0.585287 0.543345 0.039942
v 0.585287 0.543345 0.019188
v 0.639281 -0.000000 0.365852
v 0.639281 0.057520 0.365852
v 0.632872 0.057520 0.365852
v 0.639281 0.057520 -0.443415
v 0.639281 -0.000000 -0.443415
v 0.632872 0.057520 -0.443415
v 0.632872 -0.005225 0.365852
v 0.632872 -0.005225 -0.443415
v 0.703852 -0.000000 0.365852
v 0.703852 -0.005225 0.365852
v 0.703852 -0.000000 -0.443415
v 0.703852 -0.005225 -0.443415
v -0.648946 -0.000000 0.365852
v -0.648946 0.057520 0.365852
v -0.642537 0.057520 0.365852
v -0.648946 0.057520 -0.443415
v -0.648946 -0.000000 -0.443415
v -0.642537 0.057520 -0.443415
v -0.642537 -0.005225 0.365852
v -0.642537 -0.005225 -0.443415
v -0.713517 -0.000000 0.365852
v -0.713517 -0.005225 0.365852
v -0.713517 -0.000000 -0.443415
v -0.713517 -0.005225 -0.443415
vt 0.343499 0.988716
vt 0.312131 0.988716
vt 0.312131 0.962464
vt 0.343499 0.962464
vt 0.401119 0.176138
vt 0.401119 0.962464
vt 0.369751 0.962464
vt 0.369751 0.176138
vt 0.343499 0.176138
vt 0.312131 0.176138
vt 0.285879 0.962464
vt 0.285879 0.176138
vt 0.343499 0.988716
vt 0.343499 0.962464
vt 0.312131 0.962464
vt 0.312131 0.988716
vt 0.343499 0.176138
vt 0.312131 0.176138
vt 0.369751 0.176138
vt 0.369751 0.962464
vt 0.401119 0.176138
vt 0.401119 0.962464
vt 0.285879 0.176138
vt 0.285879 0.962464
vt 0.860633 0.095746
vt 0.829700 0.095746
vt 0.829700 0.019340
vt 0.860633 0.019340
vt 0.802387 0.095746
vt 0.802387 0.019340
vt 0.330891 0.003333
vt 0.330891 0.041029
vt 0.288199 0.041029
vt 0.288199 0.003333
vt 0.887945 0.095746
vt 0.887945 0.019341
vt 0.771454 0.095746
vt 0.771454 0.019341
vt 0.887945 0.095746
vt 0.887945 0.019341
vt 0.860633 0.019340
vt 0.860633 0.095746
vt 0.802387 0.019340
vt 0.771454 0.019341
vt 0.771454 0.095746
vt 0.802387 0.095746
vt 0.829700 0.095746
vt 0.829700 0.019340
vt 0.288199 0.003334
vt 0.330891 0.003334
vt 0.330891 0.041029
vt 0.288199 0.041029
vt 0.010034 0.996741
vt 0.010034 0.002402
vt 0.112699 0.002402
vt 0.112699 0.996741
vt 0.134577 0.002402
vt 0.134577 0.996741
vt 0.237242 0.002402
vt 0.237242 0.996741
vt 0.259121 0.002402
vt 0.259121 0.996741
vt 0.322396 0.050015
vt 0.340344 0.050015
vt 0.340344 0.152680
vt 0.322396 0.152680
vt 0.278984 0.050015
vt 0.296932 0.050015
vt 0.296932 0.152680
vt 0.278984 0.152680
vt 0.010034 0.996741
vt 0.010034 0.002402
vt 0.112699 0.002402
vt 0.112699 0.996741
vt 0.134577 0.002402
vt 0.134577 0.996741
vt 0.237242 0.002402
vt 0.237242 0.996741
vt 0.259121 0.002402
vt 0.259121 0.996741
vt 0.322396 0.050015
vt 0.340344 0.050015
vt 0.340344 0.152680
vt 0.322396 0.152680
vt 0.278984 0.050015
vt 0.296932 0.050015
vt 0.296932 0.152680
vt 0.278984 0.152680
vt 0.010034 0.996741
vt 0.010034 0.002402
vt 0.112699 0.002402
vt 0.112699 0.996741
vt 0.134577 0.002402
vt 0.134577 0.996741
vt 0.237242 0.002402
vt 0.237242 0.996741
vt 0.259121 0.002402
vt 0.259121 0.996741
vt 0.322396 0.050015
vt 0.340344 0.050015
vt 0.340344 0.152680
vt 0.322396 0.152680
vt 0.278984 0.050015
vt 0.296932 0.050015
vt 0.296932 0.152680
vt 0.278984 0.152680
vt 0.973920 0.628940
vt 0.973920 0.127894
vt 0.966575 0.135240
vt 0.966575 0.621594
vt 0.718912 0.621595
vt 0.718912 0.135240
vt 0.711567 0.127894
vt 0.711567 0.628940
vt 0.711567 0.133915
vt 0.711567 0.622920
vt 0.461254 0.622920
vt 0.461254 0.133915
vt 0.979470 0.985702
vt 0.987735 0.993967
vt 0.423997 0.993967
vt 0.432262 0.985702
vt 0.987735 0.810716
vt 0.979470 0.818981
vt 0.432262 0.818981
vt 0.423997 0.810716
vt 0.980961 0.810716
vt 0.430770 0.810716
vt 0.430770 0.641012
vt 0.980961 0.641013
vt 0.709661 0.012180
vt 0.714859 0.012179
vt 0.714859 0.038207
vt 0.709661 0.038207
vt 0.373977 0.120463
vt 0.373977 0.096603
vt 0.709661 0.096603
vt 0.709661 0.120463
vt 0.373977 0.012179
vt 0.373977 0.007348
vt 0.709661 0.007348
vt 0.373977 0.038207
vt 0.368780 0.038207
vt 0.368780 0.012179
vt 0.709661 0.067650
vt 0.709661 0.069818
vt 0.373977 0.069818
vt 0.373977 0.067650
vt 0.368780 0.067650
vt 0.714859 0.067650
vt 0.709661 0.012180
vt 0.709661 0.038207
vt 0.714859 0.038207
vt 0.714859 0.012179
vt 0.373977 0.120463
vt 0.709661 0.120463
vt 0.709661 0.096603
vt 0.373977 0.096603
vt 0.373977 0.012179
vt 0.709661 0.007348
vt 0.373977 0.007348
vt 0.373977 0.067650
vt 0.373977 0.069818
vt 0.709661 0.069818
vt 0.709661 0.067650
vt 0.368780 0.012179
vt 0.368780 0.038207
vt 0.373977 0.038207
vt 0.368780 0.067650
vt 0.714859 0.067650
vn 0.000000 1.000000 0.000000
vn 0.000000 1.000000 0.000000
vn 0.000000 1.000000 0.000000
vn 0.000000 1.000000 0.000000
vn 0.000000 0.000000 1.000000
vn 0.000000 0.000000 1.000000
vn 0.000000 0.000000 1.000000
vn 0.000000 0.000000 1.000000
vn -1.000000 0.000000 0.000000
vn -1.000000 0.000000 0.000000
vn -1.000000 0.000000 0.000000
vn -1.000000 0.000000 0.000000
vn 0.000000 0.000000 -1.000000
vn 0.000000 0.000000 -1.000000
vn 0.000000 0.000000 -1.000000
vn 0.000000 0.000000 -1.000000
vn 1.000000 0.000000 0.000000
vn 1.000000 0.000000 0.000000
vn 1.000000 0.000000 0.000000
vn 1.000000 0.000000 0.000000
vn 0.000000 1.000000 0.000000
vn 0.000000 1.000000 0.000000
vn 0.000000 1.000000 0.000000
vn 0.000000 1.000000 0.000000
vn 0.000000 0.000000 -1.000000
vn 0.000000 0.000000 -1.000000
vn 0.000000 0.000000 -1.000000
vn 0.000000 0.000000 -1.000000
vn 1.000000 0.000000 0.000000
vn 1.000000 0.000000 0.000000
vn 1.000000 0.000000 0.000000
vn 1.000000 0.000000 0.000000
vn 0.000000 0.000000 1.000000
vn 0.000000 0.000000 1.000000
vn 0.000000 0.000000 1.000000
vn 0.000000 0.000000 1.000000
vn -1.000000 0.000000 0.000000
vn -1.000000 0.000000 0.000000
vn -1.000000 0.000000 0.000000
vn -1.000000 0.000000 0.000000
vn 0.000000 0.000000 1.000000
vn 0.000000 0.000000 1.000000
vn 0.000000 0.000000 1.000000
vn 0.000000 0.000000 1.000000
vn 1.000000 0.000000 0.000000
vn 1.000000 0.000000 0.000000
vn 1.000000 0.000000 0.000000
vn 1.000000 0.000000 0.000000
vn 0.000000 1.000000 0.000000
vn 0.000000 1.000000 0.000000
vn 0.000000 1.000000 0.000000
vn 0.000000 1.000000 0.000000
vn -1.000000 0.000000 0.000000
vn -1.000000 0.000000 0.000000
vn -1.000000 0.000000 0.000000
vn -1.000000 0.000000 0.000000
vn 0.000000 0.000000 -1.000000
vn 0.000000 0.000000 -1.000000
vn 0.000000 0.000000 -1.000000
vn 0.000000 0.000000 -1.000000
vn 1.000000 0.000000 0.000000
vn 1.000000 0.000000 0.000000
vn 1.000000 0.000000 0.000000
vn 1.000000 0.000000 0.000000
vn 0.000000 0.000000 -1.000000
vn 0.000000 0.000000 -1.000000
vn 0.000000 0.000000 -1.000000
vn 0.000000 0.000000 -1.000000
vn -1.000000 0.000000 0.000000
vn -1.000000 0.000000 0.000000
vn -1.000000 0.000000 0.000000
vn -1.000000 0.000000 0.000000
vn 0.000000 0.000000 1.000000
vn 0.000000 0.000000 1.000000
vn 0.000000 0.000000 1.000000
vn 0.000000 0.000000 1.000000
vn 0.000000 1.000000 0.000000
vn 0.000000 1.000000 0.000000
vn 0.000000 1.000000 0.000000
vn 0.000000 1.000000 0.000000
vn 0.000000 0.000000 1.000000
vn 0.000000 0.000000 1.000000
vn 0.000000 0.000000 1.000000
vn 0.000000 0.000000 1.000000
vn 0.000000 1.000000 0.000000
vn 0.000000 1.000000 0.000000
vn 0.000000 1.000000 0.000000
vn 0.000000 1.000000 0.000000
vn 0.000000 0.000000 -1.000000
vn 0.000000 0.000000 -1.000000
vn 0.000000 0.000000 -1.000000
vn 0.000000 0.000000 -1.000000
vn 0.000000 -1.000000 0.000000
vn 0.000000 -1.000000 0.000000
vn 0.000000 -1.000000 0.000000
vn 0.000000 -1.000000 0.000000
vn 1.000000 0.000000 0.000000
vn 1.000000 0.000000 0.000000
vn 1.000000 0.000000 0.000000
vn 1.000000 0.000000 0.000000
vn -1.000000 0.000000 0.000000
vn -1.000000 0.000000 0.000000
vn -1.000000 0.000000 0.000000
vn -1.000000 0.000000 0.000000
vn 0.000000 0.000000 1.000000
vn 0.000000 0.000000 1.000000
vn 0.000000 0.000000 1.000000
vn 0.000000 0.000000 1.000000
vn 0.000000 1.000000 0.000000
vn 0.000000 1.000000 0.000000
vn 0.000000 1.000000 0.000000
vn 0.000000 1.000000 0.000000
vn 0.000000 0.000000 -1.000000
vn 0.000000 0.000000 -1.000000
vn 0.000000 0.000000 -1.000000
vn 0.000000 0.000000 -1.000000
vn 0.000000 -1.000000 0.000000
vn 0.000000 -1.000000 0.000000
vn 0.000000 -1.000000 0.000000
vn 0.000000 -1.000000 0.000000
vn 1.000000 0.000000 0.000000
vn 1.000000 0.000000 0.000000
vn 1.000000 0.000000 0.000000
vn 1.000000 0.000000 0.000000
vn -1.000000 0.000000 0.000000
vn -1.000000 0.000000 0.000000
vn -1.000000 0.000000 0.000000
vn -1.000000 0.000000 0.000000
vn 0.000000 0.000000 1.000000
vn 0.000000 0.000000 1.000000
vn 0.000000 0.000000 1.000000
vn 0.000000 0.000000 1.000000
vn 0.000000 1.000000 0.000000
vn 0.000000 1.000000 0.000000
vn 0.000000 1.000000 0.000000
vn 0.000000 1.000000 0.000000
vn 0.000000 0.000000 -1.000000
vn 0.000000 0.000000 -1.000000
vn 0.000000 0.000000 -1.000000
vn 0.000000 0.000000 -1.000000
vn 0.000000 -1.000000 0.000000
vn 0.000000 -1.000000 0.000000
vn 0.000000 -1.000000 0.000000
vn 0.000000 -1.000000 0.000000
vn 1.000000 0.000000 0.000000
vn 1.000000 0.000000 0.000000
vn 1.000000 0.000000 0.000000
vn 1.000000 0.000000 0.000000
vn -1.000000 0.000000 0.000000
vn -1.000000 0.000000 0.000000
vn -1.000000 0.000000 0.000000
vn -1.000000 0.000000 0.000000
vn 0.000000 1.000000 0.000000
vn 0.000000 1.000000 0.000000
vn 0.000000 1.000000 0.000000
vn 0.000000 1.000000 0.000000
vn 0.000000 -1.000000 0.000000
vn 0.000000 -1.000000 0.000000
vn 0.000000 -1.000000 0.000000
vn 0.000000 -1.000000 0.000000
vn 1.000000 0.000000 0.000000
vn 1.000000 0.000000 0.000000
vn 1.000000 0.000000 0.000000
vn 1.000000 0.000000 0.000000
vn -1.000000 0.000000 0.000000
vn -1.000000 0.000000 0.000000
vn -1.000000 0.000000 0.000000
vn -1.000000 0.000000 0.000000
vn 0.000000 0.000000 1.000000
vn 0.000000 0.000000 1.000000
vn 0.000000 0.000000 1.000000
vn 0.000000 0.000000 1.000000
vn 0.000000 0.000000 -1.000000
vn 0.000000 0.000000 -1.000000
vn 0.000000 0.000000 -1.000000
vn 0.000000 0.000000 -1.000000
vn 0.000000 1.000000 0.000000
vn 0.000000 1.000000 0.000000
vn 0.000000 1.000000 0.000000
vn 0.000000 1.000000 0.000000
vn 0.000000 -1.000000 0.000000
vn 0.000000 -1.000000 0.000000
vn 0.000000 -1.000000 0.000000
vn 0.000000 -1.000000 0.000000
vn 1.000000 0.000000 0.000000
vn 1.000000 0.000000 0.000000
vn 1.000000 0.000000 0.000000
vn 1.000000 0.000000 0.000000
vn -1.000000 0.000000 0.000000
vn -1.000000 0.000000 0.000000
vn -1.000000 0.000000 0.000000
vn -1.000000 0.000000 0.000000
vn 0.000000 0.000000 1.000000
vn 0.000000 0.000000 1.000000
vn 0.000000 0.000000 1.000000
vn 0.000000 0.000000 1.000000
vn 0.000000 0.000000 -1.000000
vn 0.000000 0.000000 -1.000000
vn 0.000000 0.000000 -1.000000
vn 0.000000 0.000000 -1.000000
vn 0.000000 0.000000 -1.000000
vn 0.000000 0.000000 -1.000000
vn -0.000000 0.000000 -1.000000
vn -0.000000 0.000000 -1.000000
vn 1.000000 0.000000 0.000000
vn 1.000000 0.000000 0.000000
vn 1.000000 0.000000 0.000000
vn 1.000000 0.000000 0.000000
vn 0.000000 1.000000 0.000000
vn 0.000000 1.000000 0.000000
vn 0.000000 1.000000 0.000000
vn 0.000000 1.000000 0.000000
vn -1.000000 0.000000 0.000000
vn -1.000000 0.000000 0.000000
vn -1.000000 0.000000 0.000000
vn -1.000000 0.000000 0.000000
vn 0.000006 0.000000 1.000000
vn 0.000003 0.000000 1.000000
vn 0.000003 0.000000 1.000000
vn 0.000006 0.000000 1.000000
vn 1.000000 0.000000 0.000000
vn 1.000000 0.000000 0.000000
vn 1.000000 0.000000 0.000000
vn 1.000000 0.000000 0.000000
vn 0.000003 0.000000 1.000000
vn 0.000003 0.000000 1.000000
vn 0.000000 0.000000 1.000000
vn 0.000000 0.000000 1.000000
vn 0.000000 -1.000000 0.000000
vn 0.000000 -1.000000 0.000000
vn 0.000000 -1.000000 0.000000
vn 0.000000 -1.000000 0.000000
vn -0.000000 1.000000 0.000000
vn -0.000000 1.000000 0.000000
vn -0.000000 1.000000 0.000000
vn -0.000000 1.000000 0.000000
vn -0.000000 0.000000 -1.000000
vn -0.000000 0.000000 -1.000000
vn -0.000000 0.000000 -1.000000
vn -0.000000 0.000000 -1.000000
vn 0.000000 0.000000 -1.000000
vn 0.000000 0.000000 -1.000000
vn 0.000000 0.000000 -1.000000
vn 0.000000 0.000000 -1.000000
vn -1.000000 0.000000 0.000000
vn -1.000000 0.000000 0.000000
vn -1.000000 0.000000 0.000000
vn -1.000000 0.000000 0.000000
vn 0.000000 1.000000 0.000000
vn 0.000000 1.000000 0.000000
vn 0.000000 1.000000 0.000000
vn 0.000000 1.000000 0.000000
vn -1.000000 0.000000 0.000000
vn -1.000000 0.000000 0.000000
vn -1.000000 0.000000 0.000000
vn -1.000000 0.000000 0.000000
vn -0.000006 0.000000 1.000000
vn -0.000006 0.000000 1.000000
vn -0.000003 0.000000 1.000000
vn -0.000003 0.000000 1.000000
vn 1.000000 0.000000 0.000000
vn 1.000000 0.000000 0.000000
vn 1.000000 0.000000 0.000000
vn 1.000000 0.000000 0.000000
vn 0.000000 1.000000 0.000000
vn 0.000000 1.000000 0.000000
vn 0.000000 1.000000 0.000000
vn 0.000000 1.000000 0.000000
vn -0.000003 0.000000 1.000000
vn 0.000000 0.000000 1.000000
vn 0.000000 0.000000 1.000000
vn -0.000003 0.000000 1.000000
vn -0.000000 -1.000000 0.000000
vn -0.000000 -1.000000 0.000000
vn -0.000000 -1.000000 0.000000
vn -0.000000 -1.000000 0.000000
vn 0.000000 0.000000 -1.000000
vn 0.000001 0.000000 -1.000000
vn 0.000001 0.000000 -1.000000
vn 0.000000 0.000000 -1.000000
s off
g Gen_const_barricade_03_lod_001
usemtl blinn4SG
f 1/1/1 2/2/2 4/3/3 3/4/4
f 6/5/5 2/6/6 1/7/7 5/8/8
f 5/8/9 1/7/10 3/4/11 7/9/12
f 3/4/13 4/3/14 8/10/15 7/9/16
f 4/3/17 2/11/18 6/12/19 8/10/20
f 9/13/21 11/14/22 12/15/23 10/16/24
f 11/14/25 13/17/26 14/18/27 12/15/28
f 15/19/29 13/17/30 11/14/31 9/20/32
f 16/21/33 15/19/34 9/20/35 10/22/36
f 12/15/37 14/18/38 16/23/39 10/24/40
f 24/25/41 23/26/42 17/27/43 18/28/44
f 23/26/45 21/29/46 20/30/47 17/27/48
f 17/31/49 20/32/50 19/33/51 18/34/52
f 22/35/53 24/25/54 18/28/55 19/36/56
f 20/30/57 21/29/58 22/37/59 19/38/60
f 30/39/61 27/40/62 26/41/63 29/42/64
f 28/43/65 27/44/66 30/45/67 31/46/68
f 32/47/69 25/48/70 28/43/71 31/46/72
f 29/42/73 26/41/74 25/48/75 32/47/76
f 25/49/77 26/50/78 27/51/79 28/52/80
f 33/53/81 34/54/82 36/55/83 35/56/84
f 35/56/85 36/55/86 38/57/87 37/58/88
f 37/58/89 38/57/90 40/59/91 39/60/92
f 39/60/93 40/59/94 34/61/95 33/62/96
f 34/63/97 40/64/98 38/65/99 36/66/100
f 39/67/101 33/68/102 35/69/103 37/70/104
f 41/71/105 42/72/106 44/73/107 43/74/108
f 43/74/109 44/73/110 46/75/111 45/76/112
f 45/76/113 46/75/114 48/77/115 47/78/116
f 47/78/117 48/77/118 42/79/119 41/80/120
f 42/81/121 48/82/122 46/83/123 44/84/124
f 47/85/125 41/86/126 43/87/127 45/88/128
f 49/89/129 50/90/130 52/91/131 51/92/132
f 51/92/133 52/91/134 54/93/135 53/94/136
f 53/94/137 54/93/138 56/95/139 55/96/140
f 55/96/141 56/95/142 50/97/143 49/98/144
f 50/99/145 56/100/146 54/101/147 52/102/148
f 55/103/149 49/104/150 51/105/151 53/106/152
f 57/107/153 59/108/154 60/109/155 58/110/156
f 62/111/157 64/112/158 63/113/159 61/114/160
f 60/109/161 59/108/162 63/113/163 64/112/164
f 57/107/165 58/110/166 62/111/167 61/114/168
f 61/115/169 63/116/170 59/117/171 57/118/172
f 62/111/173 58/110/174 60/109/175 64/112/176
f 66/119/177 65/120/178 67/121/179 68/122/180
f 69/123/181 70/124/182 72/125/183 71/126/184
f 68/122/185 67/121/186 71/126/187 72/125/188
f 65/120/189 66/119/190 70/124/191 69/123/192
f 69/127/193 71/128/194 67/129/195 65/130/196
f 70/124/197 66/119/198 68/122/199 72/125/200
f 78/131/201 76/132/202 77/133/203 80/134/204
f 76/138/205 74/135/206 73/136/207 77/137/208
f 75/139/209 74/140/210 76/141/211 78/131/212
f 79/142/213 75/139/214 78/131/215 80/134/216
f 75/139/217 79/142/218 73/143/219 74/144/220
f 84/145/221 83/146/222 81/147/223 82/148/224
f 73/143/225 79/142/226 82/148/227 81/149/228
f 82/148/229 79/142/230 80/134/231 84/145/232
f 81/147/233 83/146/234 77/137/235 73/136/236
f 80/134/237 77/133/238 83/150/239 84/145/240
f 90/151/241 92/152/242 89/153/243 88/154/244
f 86/155/245 88/156/246 89/157/247 85/158/248
f 87/159/249 90/151/250 88/160/251 86/161/252
f 94/162/253 93/163/254 95/164/255 96/165/256
f 87/159/257 86/166/258 85/167/259 91/168/260
f 91/168/261 92/152/262 90/151/263 87/159/264
f 93/163/265 85/158/266 89/157/267 95/164/268
f 85/167/269 93/169/270 94/162/271 91/168/272
f 94/162/273 96/165/274 92/152/275 91/168/276
f 92/152/277 96/165/278 95/170/279 89/153/280
