# This file uses centimeters as units for non-parametric coordinates.

mtllib const_barricade_05.mtl
g default
v -0.945379 -0.000000 0.229338
v 0.945376 -0.000000 0.229338
v -0.945371 0.924289 0.146073
v 0.945376 0.924289 0.146073
v -0.945371 0.924289 -0.146077
v 0.945376 0.924289 -0.146077
v -0.945379 -0.000000 -0.229326
v 0.945376 -0.000000 -0.229326
v 0.945376 0.118844 0.229338
v -0.945379 0.118844 0.229338
v -0.945379 0.118844 -0.229326
v 0.945376 0.118844 -0.229326
v -0.000002 -0.000000 0.229338
v -0.000002 0.118844 0.229338
v -0.000002 0.924289 0.146073
v -0.000002 0.924289 -0.146077
v -0.000002 0.118844 -0.229326
v -0.000002 -0.000000 -0.229326
v 0.945376 0.464424 0.146073
v -0.000002 0.464424 0.146073
v -0.945379 0.464424 0.146073
v -0.945379 0.464424 -0.146077
v -0.000002 0.464424 -0.146077
v 0.945376 0.464424 -0.146077
v -0.945371 1.013729 0.075667
v -0.000002 1.013729 0.075667
v -0.000002 1.013729 -0.075655
v -0.945371 1.013729 -0.075655
v 0.945376 1.013729 0.075667
v 0.945376 1.013729 -0.075655
v -0.321011 0.118844 0.229338
v -0.321011 0.118844 -0.229326
v 0.320574 0.118844 -0.229326
v 0.320574 0.118844 0.229339
v -0.545126 -0.000000 0.229338
v -0.276639 -0.000000 0.229338
v -0.500754 0.118844 0.229338
v -0.500754 0.118844 -0.229326
v -0.276639 -0.000000 -0.229326
v -0.545126 -0.000000 -0.229326
v 0.276639 -0.000000 0.229338
v 0.545127 -0.000000 0.229338
v 0.501192 0.118844 0.229338
v 0.276639 -0.000000 -0.229326
v 0.501192 0.118844 -0.229326
v 0.545127 -0.000000 -0.229326
v 0.945376 0.464424 0.075667
v 0.945376 0.118844 0.075667
v 0.945376 -0.000000 0.075667
v 0.945376 0.464424 -0.075655
v 0.945376 0.118844 -0.075654
v 0.945376 -0.000000 -0.075654
v -0.945371 0.924289 0.075667
v -0.945375 0.464424 0.075667
v -0.945379 0.118844 0.075667
v -0.945379 -0.000000 0.075667
v -0.945371 0.924289 -0.075655
v -0.945379 0.464424 -0.075655
v -0.945379 0.118844 -0.075655
v -0.945379 -0.000000 -0.075655
v 0.945376 0.982105 0.075667
v 0.945376 0.982105 -0.075655
v 1.027823 0.464424 -0.049489
v 1.027823 0.464424 0.049498
v 1.027823 0.118844 -0.049489
v 1.027823 0.118844 0.049498
v 1.027823 -0.000000 -0.049489
v 1.027823 -0.000000 0.049498
v 1.027823 0.952543 -0.049490
v 1.027823 0.952543 0.049498
v -0.856436 0.922581 0.049498
v -0.856436 0.922581 -0.049489
v -0.856439 1.013729 0.049498
v -0.856439 1.013729 -0.049489
v -0.856653 0.462414 0.049498
v -0.856656 0.462414 -0.049489
v -0.856683 0.118542 0.049498
v -0.856683 0.118542 -0.049489
v -0.856683 -0.000000 -0.049489
v -0.856683 -0.000000 0.049498
vt 0.836583 0.174071
vt 0.836583 0.233396
vt 0.790705 0.233396
vt 0.790705 0.174071
vt 0.657297 0.201257
vt 0.657297 0.174071
vt 0.479771 0.201257
vt 0.457452 0.174071
vt 0.452786 0.259530
vt 0.457453 0.072204
vt 0.445244 0.072204
vt 0.479771 0.045018
vt 0.657297 0.072203
vt 0.657297 0.045018
vt 0.790704 0.012879
vt 0.790705 0.072203
vt 0.836583 0.012878
vt 0.836583 0.072203
vt 0.021138 0.065916
vt 0.021121 0.006591
vt 0.067000 0.006579
vt 0.067016 0.065904
vt 0.200416 0.038682
vt 0.200424 0.065867
vt 0.377942 0.038633
vt 0.377949 0.065819
vt 0.412477 0.065809
vt 0.910509 0.983584
vt 0.864630 0.983584
vt 0.864630 0.806520
vt 0.910509 0.806520
vt 0.862751 0.591116
vt 0.908630 0.591116
vt 0.908630 0.768180
vt 0.862752 0.768180
vt 0.902572 0.537357
vt 0.856694 0.537357
vt 0.856694 0.360293
vt 0.902573 0.360293
vt 0.860389 0.116465
vt 0.906268 0.116466
vt 0.906268 0.293529
vt 0.860389 0.293530
vt 0.790705 0.104031
vt 0.790705 0.142244
vt 0.657297 0.142244
vt 0.657297 0.104031
vt 0.836583 0.104031
vt 0.836583 0.142244
vt 0.468865 0.142244
vt 0.468865 0.104031
vt 0.377300 0.138348
vt 0.377300 0.100146
vt 0.412487 0.100141
vt 0.412487 0.138353
vt 0.199657 0.138365
vt 0.199657 0.100129
vt 0.066909 0.138352
vt 0.066909 0.100143
vt 0.021148 0.138345
vt 0.021148 0.100149
vt 0.377942 0.199861
vt 0.377950 0.172675
vt 0.412477 0.172685
vt 0.200416 0.199813
vt 0.200424 0.172628
vt 0.067000 0.231915
vt 0.067016 0.172591
vt 0.021122 0.231903
vt 0.021138 0.172578
vt 0.394371 0.624481
vt 0.394371 0.259529
vt 0.452786 0.624481
vt 0.367186 0.624481
vt 0.367186 0.259529
vt 0.479972 0.259529
vt 0.479972 0.624481
vt 0.442685 0.955099
vt 0.404472 0.955099
vt 0.394371 0.989431
vt 0.367186 0.989431
vt 0.479972 0.989431
vt 0.452786 0.989431
vt 0.452786 0.247321
vt 0.394371 0.247321
vt 0.404472 0.223235
vt 0.442685 0.223235
vt 0.056253 0.817792
vt 0.189660 0.989435
vt 0.056253 0.989435
vt 0.189660 0.624481
vt 0.056253 0.748404
vt 0.010374 0.989435
vt 0.010374 0.834921
vt 0.056253 0.624481
vt 0.189660 0.259529
vt 0.010374 0.731275
vt 0.010374 0.624481
vt 0.056253 0.500727
vt 0.056253 0.431001
vt 0.010374 0.517687
vt 0.056253 0.259529
vt 0.010374 0.259529
vt 0.010374 0.414041
vt 0.790905 0.748403
vt 0.657497 0.624481
vt 0.790905 0.624481
vt 0.790905 0.817792
vt 0.657498 0.989435
vt 0.790905 0.500727
vt 0.836783 0.624481
vt 0.836783 0.731275
vt 0.790905 0.989435
vt 0.657497 0.259529
vt 0.790905 0.431001
vt 0.836783 0.517687
vt 0.836783 0.989435
vt 0.836783 0.834921
vt 0.790905 0.259529
vt 0.836783 0.259529
vt 0.836783 0.414041
vt 0.445244 0.174071
vn 1.000000 -0.000000 0.000000
vn 1.000000 -0.000000 0.000000
vn 1.000000 -0.000000 0.000000
vn 1.000000 -0.000000 0.000000
vn -1.000000 0.000001 0.000000
vn -1.000000 0.000001 0.000000
vn -1.000000 0.000001 0.000000
vn -1.000000 0.000001 0.000000
vn 0.000000 0.234209 0.972186
vn 0.000000 0.234209 0.972186
vn 0.000000 0.234209 0.972186
vn -1.000000 0.000002 -0.000014
vn -1.000000 0.000002 -0.000014
vn -1.000000 0.000002 -0.000014
vn -1.000000 0.000002 -0.000014
vn 0.000000 0.234209 -0.972186
vn 0.000000 0.234209 -0.972186
vn 0.000000 0.234209 -0.972186
vn 1.000000 0.000000 0.000000
vn 1.000000 0.000000 0.000000
vn 1.000000 0.000000 0.000000
vn 1.000000 0.000000 0.000000
vn -0.000000 0.234209 0.972186
vn -0.000000 0.234209 0.972186
vn -0.000000 0.234209 0.972186
vn 0.000000 1.000000 0.000000
vn 0.000000 1.000000 0.000000
vn 0.000000 1.000000 0.000000
vn 0.000000 1.000000 0.000000
vn 0.000000 0.234209 -0.972186
vn 0.000000 0.234209 -0.972186
vn 0.000000 0.234209 -0.972186
vn 0.000000 0.000000 1.000000
vn 0.000000 0.000000 1.000000
vn 0.000000 0.000000 1.000000
vn 0.000000 0.000000 1.000000
vn 0.000000 0.000000 1.000000
vn 0.000000 0.000000 1.000000
vn 0.000000 0.000000 1.000000
vn 0.000000 0.000000 1.000000
vn -1.000000 0.000017 -0.000023
vn -1.000000 0.000017 -0.000023
vn -1.000000 0.000017 -0.000023
vn -1.000000 0.000017 -0.000023
vn 0.000000 -0.000000 -1.000000
vn 0.000000 -0.000000 -1.000000
vn 0.000000 -0.000000 -1.000000
vn 0.000000 -0.000000 -1.000000
vn 0.000000 -0.000000 -1.000000
vn 0.000000 -0.000000 -1.000000
vn 0.000000 -0.000000 -1.000000
vn 0.000000 -0.000000 -1.000000
vn 0.000000 0.618621 0.785689
vn 0.000000 0.618621 0.785689
vn 0.000000 0.618621 0.785689
vn 0.000000 0.618621 0.785689
vn 0.000000 0.618622 -0.785689
vn 0.000000 0.618622 -0.785689
vn 0.000000 0.618622 -0.785689
vn 0.000000 0.618622 -0.785689
vn -1.000000 -0.000000 0.000000
vn -1.000000 -0.000000 0.000000
vn -1.000000 -0.000000 0.000000
vn 0.000000 0.618621 0.785690
vn 0.000000 0.618621 0.785690
vn 0.000000 0.618621 0.785690
vn 0.000000 0.618621 0.785690
vn 1.000000 -0.000001 0.000000
vn 1.000000 -0.000001 0.000000
vn 1.000000 -0.000001 0.000000
vn 0.000000 0.618621 -0.785690
vn 0.000000 0.618621 -0.785690
vn 0.000000 0.618621 -0.785690
vn 0.000000 0.618621 -0.785690
vn 0.000000 0.000000 1.000000
vn 0.000000 0.000000 1.000000
vn 0.000000 0.000000 1.000000
vn 0.000000 0.000000 1.000000
vn 0.000000 0.000000 1.000000
vn 0.000000 0.000000 1.000000
vn 0.000000 0.000000 1.000000
vn 0.000000 0.000000 1.000000
vn 0.000000 0.000000 -1.000000
vn 0.000000 0.000000 -1.000000
vn 0.000000 0.000000 -1.000000
vn 0.000000 0.000000 -1.000000
vn 0.000000 0.000000 -1.000000
vn 0.000000 0.000000 -1.000000
vn 0.000000 0.000000 -1.000000
vn 0.000000 0.000000 -1.000000
vn -0.000000 0.000000 1.000000
vn -0.000000 0.000000 1.000000
vn -0.000000 0.000000 1.000000
vn -0.000000 0.000000 1.000000
vn -0.000000 -0.000000 1.000000
vn -0.000000 -0.000000 1.000000
vn -0.000000 -0.000000 1.000000
vn -0.000000 -0.000000 1.000000
vn 0.000000 0.000000 -1.000000
vn 0.000000 0.000000 -1.000000
vn 0.000000 0.000000 -1.000000
vn 0.000000 0.000000 -1.000000
vn 0.000000 0.000000 -1.000000
vn 0.000000 0.000000 -1.000000
vn 0.000000 0.000000 -1.000000
vn 0.000000 0.000000 -1.000000
vn -0.936838 -0.349764 0.000000
vn -0.936838 -0.349764 0.000000
vn -0.936838 -0.349764 0.000000
vn -0.936838 -0.349764 0.000000
vn 0.936838 -0.349764 0.000000
vn 0.936838 -0.349764 0.000000
vn 0.936838 -0.349764 0.000000
vn 0.936838 -0.349764 0.000000
vn -0.937961 -0.346740 0.000000
vn -0.937961 -0.346740 0.000000
vn -0.937961 -0.346740 0.000000
vn -0.937961 -0.346740 0.000000
vn 0.937961 -0.346740 0.000000
vn 0.937961 -0.346740 0.000000
vn 0.937961 -0.346740 0.000000
vn 0.937961 -0.346740 0.000000
vn 0.000000 0.234209 0.972186
vn 0.000000 0.234209 0.972186
vn 0.000000 0.234209 0.972186
vn 0.000000 0.234209 0.972186
vn 0.000000 0.234209 0.972186
vn 0.000000 0.234209 0.972186
vn 0.000000 0.234209 0.972186
vn 0.000000 0.234209 0.972186
vn 0.000000 0.234209 0.972186
vn 0.000000 0.234209 0.972186
vn 0.000000 0.234209 0.972186
vn -0.000000 0.234209 0.972186
vn -0.000000 0.234209 0.972186
vn -0.000000 0.234209 0.972186
vn 0.000000 0.234209 -0.972186
vn 0.000000 0.234209 -0.972186
vn 0.000000 0.234209 -0.972186
vn 0.000000 0.234209 -0.972186
vn 0.000000 0.234209 -0.972186
vn 0.000000 0.234209 -0.972186
vn 0.000000 0.234209 -0.972186
vn 0.000000 0.234209 -0.972186
vn 0.000000 0.234209 -0.972186
vn 0.000000 0.234209 -0.972186
vn 0.000000 0.234209 -0.972186
vn 0.000000 0.234209 -0.972186
vn 0.000000 0.234209 -0.972186
vn 0.000000 0.234209 -0.972186
vn 1.000000 0.000002 0.000001
vn 1.000000 0.000002 0.000001
vn 1.000000 0.000002 0.000001
vn 1.000000 0.000002 0.000001
vn 1.000000 0.000000 0.000000
vn 1.000000 0.000000 0.000000
vn 1.000000 0.000000 0.000000
vn 1.000000 0.000000 0.000000
vn 1.000000 0.000000 0.000000
vn 1.000000 0.000000 0.000000
vn 1.000000 0.000000 0.000000
vn 1.000000 0.000000 0.000000
vn 1.000000 0.000002 -0.000000
vn 1.000000 0.000002 -0.000000
vn 1.000000 0.000002 -0.000000
vn 1.000000 0.000002 -0.000000
vn 1.000000 -0.000000 0.000000
vn 1.000000 -0.000000 0.000000
vn 1.000000 -0.000000 0.000000
vn 1.000000 -0.000000 0.000000
vn 1.000000 0.000000 0.000000
vn 1.000000 0.000000 0.000000
vn 1.000000 0.000000 0.000000
vn 1.000000 0.000000 0.000000
vn -1.000000 0.000004 0.000000
vn -1.000000 0.000004 0.000000
vn -1.000000 0.000004 0.000000
vn -1.000000 0.000004 0.000000
vn -1.000000 0.000472 -0.000000
vn -1.000000 0.000472 -0.000000
vn -1.000000 0.000472 -0.000000
vn -1.000000 0.000472 -0.000000
vn -1.000000 0.000083 -0.000000
vn -1.000000 0.000083 -0.000000
vn -1.000000 0.000083 -0.000000
vn -1.000000 0.000083 -0.000000
vn -1.000000 0.000000 0.000000
vn -1.000000 0.000000 0.000000
vn -1.000000 0.000000 0.000000
vn -1.000000 0.000000 0.000000
vn -1.000000 0.000000 0.000000
vn -1.000000 0.000000 0.000000
vn -1.000000 0.000000 0.000000
vn -1.000000 0.000020 0.000000
vn -1.000000 0.000020 0.000000
vn -1.000000 0.000020 0.000000
vn -1.000000 0.000020 0.000000
vn -1.000000 -0.000001 0.000000
vn -1.000000 -0.000001 0.000000
vn -1.000000 -0.000001 0.000000
vn -1.000000 -0.000001 0.000000
vn -1.000000 0.000000 0.000000
vn -1.000000 0.000000 0.000000
vn -1.000000 0.000000 0.000000
vn -1.000000 0.000000 0.000000
vn 1.000000 0.000000 0.000000
vn 1.000000 0.000000 0.000000
vn 1.000000 0.000000 0.000000
vn 1.000000 0.000000 0.000000
vn 0.302494 -0.000000 -0.953151
vn 0.302494 -0.000000 -0.953152
vn 0.302494 -0.000000 -0.953151
vn 0.302494 -0.000000 -0.953151
vn 0.302494 -0.000002 -0.953152
vn 0.302494 -0.000002 -0.953152
vn 0.302493 -0.000002 -0.953151
vn 0.302494 -0.000002 -0.953152
vn 0.302496 0.000000 0.953151
vn 0.302496 0.000000 0.953151
vn 0.302496 0.000000 0.953151
vn 0.302496 0.000000 0.953151
vn 0.302492 -0.000002 -0.953152
vn 0.302492 -0.000002 -0.953152
vn 0.302492 -0.000002 -0.953152
vn 0.302492 -0.000002 -0.953152
vn 0.302496 0.000000 0.953151
vn 0.302496 0.000000 0.953151
vn 0.302496 0.000000 0.953151
vn 0.302496 0.000000 0.953151
vn 0.337514 0.941321 0.000000
vn 0.337514 0.941321 0.000000
vn 0.337514 0.941321 0.000000
vn 0.337514 0.941321 0.000000
vn 0.302494 0.000000 0.953151
vn 0.302494 0.000000 0.953151
vn 0.302494 0.000000 0.953151
vn 0.302494 0.000000 0.953151
vn 1.000000 0.000004 0.000003
vn 1.000000 0.000004 0.000003
vn 1.000000 0.000004 0.000003
vn 1.000000 0.000002 -0.000001
vn 1.000000 0.000002 -0.000001
vn 1.000000 0.000002 -0.000001
vn 1.000000 0.000002 -0.000001
vn -0.282250 0.000000 -0.959341
vn -0.282250 0.000000 -0.959341
vn -0.282250 0.000000 -0.959341
vn -0.282250 0.000000 -0.959341
vn -0.282249 0.000001 0.959341
vn -0.282249 0.000001 0.959341
vn -0.282249 0.000001 0.959341
vn -0.282249 0.000001 0.959341
vn -0.282558 0.000069 -0.959250
vn -0.282558 0.000069 -0.959250
vn -0.282558 0.000069 -0.959250
vn -0.282558 0.000069 -0.959250
vn -0.282552 0.000070 0.959252
vn -0.282552 0.000070 0.959252
vn -0.282552 0.000070 0.959252
vn -0.282552 0.000070 0.959252
vn -0.282906 0.000013 -0.959148
vn -0.282906 0.000013 -0.959148
vn -0.282906 0.000013 -0.959148
vn -0.282906 0.000013 -0.959148
vn -0.282900 0.000012 0.959149
vn -0.282900 0.000012 0.959149
vn -0.282900 0.000012 0.959149
vn -0.282900 0.000012 0.959149
vn -0.282943 0.000000 -0.959137
vn -0.282943 0.000000 -0.959137
vn -0.282943 0.000000 -0.959137
vn -0.282943 0.000000 -0.959137
vn -0.282942 -0.000000 0.959137
vn -0.282942 -0.000000 0.959137
vn -0.282942 -0.000000 0.959137
vn -0.282942 -0.000000 0.959137
vn 0.000000 1.000000 0.000000
vn 0.000000 1.000000 0.000000
vn 0.000000 1.000000 0.000000
vn 0.000000 1.000000 0.000000
vn 0.000000 1.000000 0.000000
vn 0.000000 1.000000 0.000000
vn -0.000000 1.000000 0.000000
vn -0.000000 1.000000 0.000000
vn -0.000000 1.000000 0.000000
vn -0.000000 1.000000 0.000000
s off
g Gen_const_barricade_05_001
usemtl blinn6SG
f 52/1/1 8/2/2 12/3/3 51/4/4
f 56/19/5 1/20/6 10/21/7 55/22/8
f 37/88/9 21/89/10 10/90/11
f 55/22/12 10/21/13 21/23/14 54/24/15
f 32/105/16 23/106/17 17/107/18
f 51/4/19 12/3/20 24/5/21 50/6/22
f 34/99/23 20/91/24 14/95/25
f 26/71/26 29/72/27 30/9/28 27/73/29
f 45/115/30 24/114/31 12/119/32
f 19/96/33 4/75/34 15/74/35 20/91/36
f 3/81/37 21/89/38 20/91/39 15/74/40
f 54/24/41 21/23/42 3/25/43 53/26/44
f 22/109/45 5/82/46 16/77/47 23/106/48
f 16/77/49 6/76/50 24/114/51 23/106/52
f 25/80/53 3/81/54 15/74/55 26/71/56
f 5/82/57 28/83/58 27/73/59 16/77/60
f 53/26/61 3/25/62 25/27/63
f 15/74/64 4/75/65 29/72/66 26/71/67
f 62/8/68 6/7/69 30/122/70
f 27/73/71 30/9/72 6/76/73 16/77/74
f 31/92/75 36/97/76 13/98/77 14/95/78
f 10/90/79 1/93/80 35/94/81 37/88/82
f 18/111/83 39/112/84 32/105/85 17/107/86
f 7/117/87 11/113/88 38/108/89 40/118/90
f 2/103/91 9/102/92 43/100/93 42/104/94
f 13/98/95 41/101/96 34/99/97 14/95/98
f 33/110/99 44/116/100 18/111/101 17/107/102
f 12/119/103 8/120/104 46/121/105 45/115/106
f 36/28/107 31/29/108 32/30/109 39/31/110
f 37/32/111 35/33/112 40/34/113 38/35/114
f 42/36/115 43/37/116 45/38/117 46/39/118
f 34/40/119 41/41/120 44/42/121 33/43/122
f 20/91/123 21/89/124 37/88/125 31/92/126
f 20/91/127 31/92/128 14/95/129
f 34/99/130 43/100/131 19/96/132 20/91/133
f 43/100/134 9/102/135 19/96/136
f 23/106/137 24/114/138 45/115/139 33/110/140
f 23/106/141 33/110/142 17/107/143
f 32/105/144 38/108/145 22/109/146 23/106/147
f 38/108/148 11/113/149 22/109/150
f 47/13/151 61/10/152 4/12/153 19/14/154
f 9/15/155 48/16/156 47/13/157 19/14/158
f 2/17/159 49/18/160 48/16/161 9/15/162
f 61/85/163 62/84/164 30/9/165 29/72/166
f 66/44/167 65/45/168 63/46/169 64/47/170
f 68/48/171 67/49/172 65/45/173 66/44/174
f 72/52/175 71/53/176 73/54/177 74/55/178
f 76/56/179 75/57/180 71/53/181 72/52/182
f 78/58/183 77/59/184 75/57/185 76/56/186
f 79/60/187 80/61/188 77/59/189 78/58/190
f 5/62/191 57/63/192 28/64/193
f 22/65/194 58/66/195 57/63/196 5/62/197
f 11/67/198 59/68/199 58/66/200 22/65/201
f 7/69/202 60/70/203 59/68/204 11/67/205
f 63/46/206 69/50/207 70/51/208 64/47/209
f 63/46/210 50/6/211 62/8/212 69/50/213
f 51/4/214 50/6/215 63/46/216 65/45/217
f 47/13/218 48/16/219 66/44/220 64/47/221
f 52/1/222 51/4/223 65/45/224 67/49/225
f 48/16/226 49/18/227 68/48/228 66/44/229
f 62/84/230 61/85/231 70/86/232 69/87/233
f 64/47/234 70/51/235 61/10/236 47/13/237
f 4/12/238 61/10/239 29/11/240
f 6/7/241 62/8/242 50/6/243 24/5/244
f 53/26/245 25/27/246 73/54/247 71/53/248
f 28/64/249 57/63/250 72/52/251 74/55/252
f 54/24/253 53/26/254 71/53/255 75/57/256
f 57/63/257 58/66/258 76/56/259 72/52/260
f 55/22/261 54/24/262 75/57/263 77/59/264
f 58/66/265 59/68/266 78/58/267 76/56/268
f 56/19/269 55/22/270 77/59/271 80/61/272
f 59/68/273 60/70/274 79/60/275 78/58/276
f 27/73/277 28/83/278 74/78/279
f 26/71/280 73/79/281 25/80/282
f 27/73/283 74/78/284 73/79/285 26/71/286
